<mxfile host="app.diagrams.net" agent="Mozilla/5.0 (X11; Linux x86_64) AppleWebKit/537.36 (KHTML, like Gecko) Chrome/136.0.0.0 Safari/537.36" version="27.0.6">
  <diagram id="f106602c-feb2-e66a-4537-3a34d633f6aa" name="Page-1">
    <mxGraphModel dx="830" dy="496" grid="1" gridSize="10" guides="1" tooltips="1" connect="1" arrows="1" fold="1" page="1" pageScale="1" pageWidth="1169" pageHeight="827" background="none" math="0" shadow="0">
      <root>
        <mxCell id="0" />
        <mxCell id="1" parent="0" />
        <mxCell id="gm-BCZkmppoRR4s2eMcR-1" value="&lt;b&gt;Google &lt;/b&gt;Cloud Platform" style="fillColor=#F6F6F6;strokeColor=none;shadow=0;gradientColor=none;fontSize=14;align=left;spacing=10;fontColor=#717171;9E9E9E;verticalAlign=top;spacingTop=-4;fontStyle=0;spacingLeft=40;html=1;whiteSpace=wrap;" vertex="1" parent="1">
          <mxGeometry x="200" y="100" width="770" height="380" as="geometry" />
        </mxCell>
        <mxCell id="gm-BCZkmppoRR4s2eMcR-2" value="" style="shape=mxgraph.gcp2.google_cloud_platform;fillColor=#F6F6F6;strokeColor=none;shadow=0;gradientColor=none;" vertex="1" parent="gm-BCZkmppoRR4s2eMcR-1">
          <mxGeometry width="23" height="20" relative="1" as="geometry">
            <mxPoint x="20" y="10" as="offset" />
          </mxGeometry>
        </mxCell>
        <mxCell id="gm-BCZkmppoRR4s2eMcR-4" value="" style="container=1;collapsible=0;expand=0;recursiveResize=0;html=1;whiteSpace=wrap;strokeColor=#1192E8;fillColor=none;strokeWidth=1" vertex="1" parent="gm-BCZkmppoRR4s2eMcR-1">
          <mxGeometry x="20" y="40" width="500" height="320" as="geometry" />
        </mxCell>
        <mxCell id="gm-BCZkmppoRR4s2eMcR-5" value="" style="shape=rect;fillColor=none;aspect=fixed;resizable=0;labelPosition=right;verticalLabelPosition=middle;align=left;verticalAlign=middle;strokeColor=none;part=1;spacingLeft=5;fontSize=14;" vertex="1" parent="gm-BCZkmppoRR4s2eMcR-4">
          <mxGeometry width="48" height="48" relative="1" as="geometry" />
        </mxCell>
        <mxCell id="gm-BCZkmppoRR4s2eMcR-6" value="" style="fillColor=#1192E8;shape=mxgraph.ibm_cloud.ibm-cloud--subnets;strokeColor=none;dashed=0;outlineConnect=0;html=1;labelPosition=center;verticalLabelPosition=bottom;verticalAlign=top;part=1;movable=0;resizable=0;rotatable=0;" vertex="1" parent="gm-BCZkmppoRR4s2eMcR-5">
          <mxGeometry width="24" height="24" relative="1" as="geometry">
            <mxPoint x="12" y="12" as="offset" />
          </mxGeometry>
        </mxCell>
        <mxCell id="gm-BCZkmppoRR4s2eMcR-7" value="" style="shape=rect;fillColor=#1192E8;aspect=fixed;resizable=0;labelPosition=right;verticalLabelPosition=middle;align=left;verticalAlign=middle;strokeColor=none;part=1;spacingLeft=5;fontSize=14;" vertex="1" parent="gm-BCZkmppoRR4s2eMcR-4">
          <mxGeometry width="4" height="48" relative="1" as="geometry" />
        </mxCell>
        <mxCell id="gm-BCZkmppoRR4s2eMcR-39" value="" style="rounded=0;whiteSpace=wrap;html=1;" vertex="1" parent="gm-BCZkmppoRR4s2eMcR-4">
          <mxGeometry x="20" y="50" width="460" height="250" as="geometry" />
        </mxCell>
        <mxCell id="gm-BCZkmppoRR4s2eMcR-40" value="" style="editableCssRules=.*;html=1;shape=image;verticalLabelPosition=bottom;labelBackgroundColor=#ffffff;verticalAlign=top;aspect=fixed;imageAspect=0;image=data:image/svg+xml,PHN2ZyB4bWxucz0iaHR0cDovL3d3dy53My5vcmcvMjAwMC9zdmciIHhtbG5zOnY9Imh0dHBzOi8vdmVjdGEuaW8vbmFubyIgd2lkdGg9IjE0LjAwMDI5OTQ1MzczNTM1MiIgaGVpZ2h0PSIxNS45OTI5MjI3ODI4OTc5NSIgdmlld0JveD0iLTAuMDAwMTQ5NjA4NDAwNTMzOTA3MTIgLTAuMDAwNDYxNzIyMDgzODU1NDIwMzUgMTQuMDAwMjk5NDUzNzM1MzUyIDE1Ljk5MjkyMjc4Mjg5Nzk1Ij4mI3hhOwk8c3R5bGUgdHlwZT0idGV4dC9jc3MiPiYjeGE7CS5zdDB7ZmlsbDojNDI4NWY0O30mI3hhOwk8L3N0eWxlPiYjeGE7CTxwYXRoIGNsYXNzPSJzdDAiIGQ9Ik0xMy42NyAzLjczNkw3LjM2LjA5NmEuNzIuNzIgMCAwIDAtLjcyIDBMLjMzIDMuNzM2YS43Mi43MiAwIDAgMC0uMzMuNjJ2Ny4yOGEuNzIuNzIgMCAwIDAgLjM2LjYybDYuMjggMy42NGEuNzIuNzIgMCAwIDAgLjcyIDBsNi4zMS0zLjY0YS43Mi43MiAwIDAgMCAuMzMtLjYydi03LjI4YS43Mi43MiAwIDAgMC0uMzMtLjYyem0tLjg3IDcuMmwtMi4yLTEuMjd2LTMuMzRsLTMuMjUgMS44N3YzLjhsMi45LTEuNjcgMi4yIDEuMjctNS40NSAzLjEtNS40NS0zLjE1IDIuMi0xLjI3IDIuOSAxLjcydi0zLjhMMy40IDYuMzI2djMuMzRsLTIuMiAxLjI3di02LjI5bDUuNDUtMy4xNHYyLjQ5bC0yLjkgMS43Mkw3IDcuNTg2bDMuMjUtMS44OC0yLjktMS43MXYtMi40OWw1LjQ1IDMuMTR6Ii8+JiN4YTs8L3N2Zz4=;align=center;" vertex="1" parent="gm-BCZkmppoRR4s2eMcR-4">
          <mxGeometry x="30" y="60" width="28.000000000000004" height="32" as="geometry" />
        </mxCell>
        <mxCell id="gm-BCZkmppoRR4s2eMcR-41" value="GKE Private Cluster" style="text;html=1;align=center;verticalAlign=middle;resizable=0;points=[];autosize=1;strokeColor=none;fillColor=none;" vertex="1" parent="gm-BCZkmppoRR4s2eMcR-4">
          <mxGeometry x="50" y="60" width="130" height="30" as="geometry" />
        </mxCell>
        <mxCell id="gm-BCZkmppoRR4s2eMcR-47" value="" style="group" vertex="1" connectable="0" parent="gm-BCZkmppoRR4s2eMcR-4">
          <mxGeometry x="40" y="92" width="200" height="188" as="geometry" />
        </mxCell>
        <mxCell id="gm-BCZkmppoRR4s2eMcR-44" value="" style="rounded=1;whiteSpace=wrap;html=1;fillColor=light-dark(#FFFFFF,#1A1A1A);strokeColor=none;" vertex="1" parent="gm-BCZkmppoRR4s2eMcR-47">
          <mxGeometry width="200" height="188" as="geometry" />
        </mxCell>
        <mxCell id="gm-BCZkmppoRR4s2eMcR-43" value="" style="aspect=fixed;sketch=0;html=1;dashed=0;whitespace=wrap;verticalLabelPosition=bottom;verticalAlign=top;fillColor=#2875E2;strokeColor=default;points=[[0.005,0.63,0],[0.1,0.2,0],[0.9,0.2,0],[0.5,0,0],[0.995,0.63,0],[0.72,0.99,0],[0.5,1,0],[0.28,0.99,0]];shape=mxgraph.kubernetes.icon2;kubernetesLabel=1;prIcon=node" vertex="1" parent="gm-BCZkmppoRR4s2eMcR-47">
          <mxGeometry x="10" y="10" width="39.58" height="38" as="geometry" />
        </mxCell>
        <mxCell id="gm-BCZkmppoRR4s2eMcR-48" value="" style="group" vertex="1" connectable="0" parent="gm-BCZkmppoRR4s2eMcR-4">
          <mxGeometry x="260" y="92" width="200" height="188" as="geometry" />
        </mxCell>
        <mxCell id="gm-BCZkmppoRR4s2eMcR-49" value="" style="rounded=1;whiteSpace=wrap;html=1;fillColor=light-dark(#FFFFFF,#1A1A1A);strokeColor=none;" vertex="1" parent="gm-BCZkmppoRR4s2eMcR-48">
          <mxGeometry width="200" height="188" as="geometry" />
        </mxCell>
        <mxCell id="gm-BCZkmppoRR4s2eMcR-50" value="" style="aspect=fixed;sketch=0;html=1;dashed=0;whitespace=wrap;verticalLabelPosition=bottom;verticalAlign=top;fillColor=#2875E2;strokeColor=default;points=[[0.005,0.63,0],[0.1,0.2,0],[0.9,0.2,0],[0.5,0,0],[0.995,0.63,0],[0.72,0.99,0],[0.5,1,0],[0.28,0.99,0]];shape=mxgraph.kubernetes.icon2;kubernetesLabel=1;prIcon=node" vertex="1" parent="gm-BCZkmppoRR4s2eMcR-48">
          <mxGeometry x="10" y="10" width="39.58" height="38" as="geometry" />
        </mxCell>
        <mxCell id="gm-BCZkmppoRR4s2eMcR-51" value="" style="strokeColor=#dddddd;shadow=0;strokeWidth=1;rounded=1;absoluteArcSize=1;arcSize=2;" vertex="1" parent="gm-BCZkmppoRR4s2eMcR-4">
          <mxGeometry x="340" y="-30" width="50" height="50" as="geometry" />
        </mxCell>
        <mxCell id="gm-BCZkmppoRR4s2eMcR-52" value="" style="editableCssRules=.*;html=1;fontColor=#999999;shape=image;verticalLabelPosition=middle;verticalAlign=middle;labelPosition=right;align=left;spacingLeft=20;part=1;points=[];imageAspect=0;image=data:image/svg+xml,PHN2ZyB4bWxucz0iaHR0cDovL3d3dy53My5vcmcvMjAwMC9zdmciIHhtbG5zOnY9Imh0dHBzOi8vdmVjdGEuaW8vbmFubyIgd2lkdGg9IjIwIiBoZWlnaHQ9IjIwIiB2aWV3Qm94PSIwIDAgMjAgMjAiPiYjeGE7CTxzdHlsZSB0eXBlPSJ0ZXh0L2NzcyI+JiN4YTsJLnN0MHtmaWxsOiM0Mjg1ZjQ7fSYjeGE7CS5zdDF7ZmlsbDojNjY5ZGY2O30mI3hhOwkuc3Qye2ZpbGw6I2FlY2JmYTt9JiN4YTsJPC9zdHlsZT4mI3hhOwk8cGF0aCBjbGFzcz0ic3QxIiBkPSJNMTYgMTBoMnY0aC0yem0tNyAwaDJ2NEg5em0tNyAwaDJ2NEgyeiIvPiYjeGE7CTxwYXRoIGNsYXNzPSJzdDAiIGQ9Ik05IDVoMnY0SDl6Ii8+JiN4YTsJPHBhdGggY2xhc3M9InN0MSIgZD0iTTIgOWgxNnYySDJ6Ii8+JiN4YTsJPHBhdGggY2xhc3M9InN0MiIgZD0iTTQgMGgxMnY1SDR6Ii8+JiN4YTsJPHBhdGggY2xhc3M9InN0MSIgZD0iTTEwIDBoNnY1aC02eiIvPiYjeGE7CTxwYXRoIGNsYXNzPSJzdDIiIGQ9Ik0xNCAxNGg2djZoLTZ6TTAgMTRoNnY2SDB6Ii8+JiN4YTsJPHBhdGggY2xhc3M9InN0MSIgZD0iTTMgMTRoM3Y2SDN6Ii8+JiN4YTsJPHBhdGggY2xhc3M9InN0MiIgZD0iTTcgMTRoNnY2SDd6Ii8+JiN4YTsJPHBhdGggY2xhc3M9InN0MSIgZD0iTTEwIDE0aDN2NmgtM3ptNyAwaDN2NmgtM3oiLz4mI3hhOzwvc3ZnPg==;" vertex="1" parent="gm-BCZkmppoRR4s2eMcR-51">
          <mxGeometry width="20" height="20" relative="1" as="geometry">
            <mxPoint x="15" y="15" as="offset" />
          </mxGeometry>
        </mxCell>
        <mxCell id="gm-BCZkmppoRR4s2eMcR-53" value="" style="rounded=0;whiteSpace=wrap;html=1;dashed=1;dashPattern=8 8;" vertex="1" parent="gm-BCZkmppoRR4s2eMcR-4">
          <mxGeometry x="50" y="150" width="400" height="50" as="geometry" />
        </mxCell>
        <mxCell id="gm-BCZkmppoRR4s2eMcR-67" style="edgeStyle=orthogonalEdgeStyle;rounded=0;orthogonalLoop=1;jettySize=auto;html=1;entryX=0.788;entryY=0.048;entryDx=0;entryDy=0;entryPerimeter=0;" edge="1" parent="gm-BCZkmppoRR4s2eMcR-4" source="gm-BCZkmppoRR4s2eMcR-51" target="gm-BCZkmppoRR4s2eMcR-53">
          <mxGeometry relative="1" as="geometry" />
        </mxCell>
        <mxCell id="gm-BCZkmppoRR4s2eMcR-83" value="" style="shape=image;imageAspect=0;aspect=fixed;verticalLabelPosition=bottom;verticalAlign=top;image=data:image/png,iVBORw0KGgoAAAANSUhEUgAABXgAAAPeCAYAAAC2nnL+AABrOklEQVR42uzdD2jd9b038FKKiAy5FBGRMUYZY8hliPe01v9N6rRqdf6pnTqnnXdT57zupPnX/Gly0iRN0zRJ869p/vRf+txn3A2fIWOMcRlyGd4x7t1j4h6R4SMiIiIiIkWk9EnO8z1Jzsk5Jye1aRKb5Pd6wZdzct5Ocrqe84O339/nu2YNAAAAAAAAAAAAAAAAAAAAAAAAAAAAAAAAAAAAAAAAAAAAAAAAAAAAAAAAAAAAAAAAAAAAAAAAAAAAAAAAAAAAAAAAAAAAAAAAAAAAAAAAAAAAAAAAAAAAAAAAAAAAAAAAAAAAAAAAAAAAAAAAAAAAAAAAAAAAAAAAAAAAAAAAAAAAAAAAAAAAAAAAAAAAAAAAAAAAAAAAAAAAAAAAAAAAAAAAAAAAAAAAAAAAAAAAAAAAAAAAAAAAAAAAAAAAAAAAAAAAAAAAAAAAAAAAAAAAAAAAAAAAAAAAAAAAAAAAAAAAAAAAAAAAAAAAAAAAAAAAAAAAAAAAAAAAAAAAAAAAAAAAAAAAAAAAAAAAAAAAAAAAAAAAAAAAAAAAAAAAAAAAAAAAAAAAAAAAAAAAAAAAAAAAAAAAAAAAAAAAAAAAAAAAAAAAAAAAAAAAAAAAAAAAAAAAAAAAAAAAAAAAAAAAAAAAAAAAAAAAAAAAAAAAAAAAAAAAAAAAAAAAAAAAAAAAAAAAAAAAAAAAAAAAAAAAAAAAAAAAAAAAAAAAAAAAAAAAAAAAAAAAAAAAAAAAAAAAAAAAAAAAAAAAAAAAAAAAAAAAAAAAAAAAAAAAAAAAAAAAAAAAAAAAAAAAAAAAAAAAAAAAAAAAAAAAAAAAAAAAAAAAAAAAAAAAAAAAAAAAAAAAAAAAAAAAAAAAAAAAAAAAAAAAAAAAAAAAAAAAAAAAAAAAAAAAAAAAAAAAAAAAAAAAAAAAAAAAAAAAAAAAAAAAAAAAAAAAAAAAAAAAAAAAAAAAAAAAAAAAAAAAAAAAAAAAAAAAAAAAAAAAAAAAAAAAAAAAAAAAAAAAAAAAAAAAAAAAAAAAAAAAAAAAAAAAAAAAAAAAAAAAAAAAAAAAAAAAAAAAAAAAAAAAAAAAAAAAAAAAAAAAAAAAAAAAAAAAAAAAAAAAAAAAAAAAAAAAAAAAAAAAAAAAAAAAAAAAAAAAAAAAAAAAAAAAAAAAAAAAAAAAAAAAAAAAAAAAAAAAAAAAAAAAAAAAAAAAAAAAAAAAAAAAAAAAAAAAAAAAAAAAAAAAAAAAAAAAAAAAAAAAAAAAAAAAAAAAAAAAAAAAAAAAAAAAAAAAAAAAAAAAAAAAAAAAAAAAAAAAAAAAAAAAAAAAAAAAAAAAAAAAAAAAAAAAAAAAAAAAAAAAAAAAAAAAAAAAAAAAAAAAAAAAAAAAAAAAAAAAAAAAAAAAAAAAAAAAAAAAAAAAAAAAAAAAAAAAAAAAAAAAAAAAAAAAAAAAAAAAAAAAAAAAAAAAAAAAAAAAAAAAAAAAAAAAAAAAAAAAAAAAAAAAAAAAAAAAAAAAAAAAAAAAAAAAAAAAAAAAAAAAAAAAAAAAAAAAAAAAAAAAAAAAAAAAAAAAAAAAAAAAAAAAAAAAAAAAAAAAAAAAAAAAAAAAAAAAAAAAAAAAAAAAAAAAAAAAAAAAAAAAAAAAAAAAAAAAAAAAAAAAAAAAAAAAAAAAAAAAAAAAAAAAAAAAAAAAAAAAAAAAAAAAAAAAAAAAAAAAAAAAAAAAAAAAAAAAAAAAAAAAAAAAAAAAAAAAAAAAAAAAAAAAAAAAAAAAAAAAAAAAAAAAAAAAAAAAAAAAAAAAAAAAAAAAAAAAAAAAAAAAAAAAAAAAAAAAAAAAAAAAAAAAAAAAAAAAAAAAAAAAAAAAAAAAAAAAAAAAAAAAAAAAAAAAAAAAAAAAAAAAAAAAAAAAAAAAAAAAAAAAAAAAAAAAAAAAAAAAAAAAAAAAAAAAAAAAAAAAAAAAAAAAAAAAAAAAAAAAAAAAAAAAAAAAAAAAAAAAAAAAAAAAAAAAAAAAAAAAAAAAAAAAAAAAAAAAAAAAAAAAAAAAAAAAAAAAAAAAAAAAAAAAAAAAAAAAAAAAAAAAAAAAAAAAAAAAAAAAAAAAAAAAAAAAAAAAAAAAAAAAAAAAAAAAAAAAAAAAAAAAAAAAAAAAAAAAAAAAAAAAAAAAAAAAAAAAAAAAAAAAAAAAAAAAAAAAAAAAAAAAAAAAAAAAAAAAAAAAAAAAAAAAAAAAAAAAAAAAAAAAAAAAAAAAAAAAAAAAAAAAAAAAAAAAAAAAAAAAAAAAAAAAAAAAAAAAAAAAAAAAAAAAAAAAAAAAAAAAAAAAAAAAAAAAAAAAAAAAAAAAAAAAAAAAAAAAAAAAAAAAAAAAAAAAAAAAAAAAAAAAAAAAAAAAAAAAAAAAAAAAAAAAAAAAAAAAAAAAAAAAAAAAAAAAAAAAAAAAAAAAAAAAAAAAAAAAAAAAAAAAAAAAAAAAAAAAAAAAAAAAAAAAAAAAAAAAAAAAAAAAAAAAAAAAAAAAAAAAAAAAAAAAAAAAAAAAAAAAAAAAAAAAAAAAAAAAAAAAAAAAAAAAAAAAAAAAAAAAAAAAAAAAAAAAAAAAAAAAAAAAAAAAAAAAAAAAAAAAAAAAAAAAAAAAAAAAAAAAAAAAAAAAAAAAAAAAAAAAAAAAAAAAAAAAAAAAAAAAAAAAAABcsL5fJdYOjpRd2XO88pru4coNnccq//HgYNWmlsGa21uO1hS3DKRW7eTa11d3b6Kvfnuir257w5G6e/cfrb0z/DNbDg5UbT44sCfWOVz5j13DFdel/l2Dx3Zf7k8XAAAAAGAOfYOVl7UN7vlGQ9/e6+PtTbc/3dyx7d6ao9vvqhx88vF9Xc1PNXeceKq585UnGw+/+ti+7v96pL73ze21/W9/b8/Qu7eXH3/v5tKT728sGXl/U8nIBzfuPvXR5t2nPr5p96lPbio9+WnIPgvrTN76PGulX/ss9c9PrvC/Df+OT1L/rvDv/eDm0hPvb60ceu++mv63H6rre2tnovuv4Xf541NNnb8Mj+0P1B59IfweDzy4t2/7T1oO3bWna9/m/f3V3+kaLF2fSCT8HwwAAAAArExHTpWt6TpecXldT/3VP2lp+8adlUMbftp6aPuLbQeqn9nffuz7tUdeuaX0xKtbKo797c49Qx+EIvWz8PxsKFzHQ7ma3Bg/nYzFw2PJ6akVnsfi6efLJwtlcPLWshPjRRXHvgjv45PiyuF3bi07/pc7yo/9/tFEz8uh+B0I7zn+aENvbEd9z4Z4e/PXw87h9d0nqtb5WwIAAAAALBsDp39xeXN/zbaXDu3f/WBdX+vWPUO/vL+2/81t1QOfhTJ3PFOQlkwVppkCNW+txizsMk6G8vds2IH8UVh/Ds+HnmzsbNjbU/9kz2Dltb+y4xcAAAAA+Cqk5t429++9LuxMffCe6oHndzZ0//qhut73wk7WL0KReS6sqV24YcVKRnLLz/hM+RnlLPVns2lqjd9Ycups+HP89AcN3X99YG9/y4+aOp6o601s6j61xxxgAAAAAODi9Q6XrmkdqF7/wsED330k0XPvj1va+++uGvjLbWUn3g/zZ79IjShI71jNHmEwVWYWHm8gmztLFb+hKD93W/nxj+6oOPb6j5o6Xw6F77NPNnXe0NxXc03fwG5/KQEAAACAwvpHytYcGKhaFw4S+1p5Z/Otu5o6OsOohf+4q2rw03AAWdaYhXQhOV1W5uxWlS1mNj3e4fMwx/gvD9f3DZV1Nu96trn9qsa+vZf1DsT9pQUAAAAA1qw50F+3YVdz5wsP7D3yyzAy4Mym/BEDWfNlN8Zlly6bmuf74N4jvw87fF9qPrr3On97AQAAACBiTvwmvra2J/GdMEP3iTD/9Y+3lJ346Kbdp85tnKPYtZbfCruqz91cevLjHfW9f9mR6H0h3r7/+sP/s3qtv90AAAAAsAqFA9LW1PTsW//cgYO3Plzf++uwE/SdUBCem5kHOzJ9EFjqgLTTefN1Zcs5S81DLqoY/uChur6Xnz3QdmdJx/6r+4dLlb0AAAAAsBocPlWx/pmW9rL7ao++ljrIK3O411w7RGUrNrup9OT4vTUDbz7ZdLihc7jian/7AQAAAGCF2nN433d/0NDVtrVy+LMwV3c8fwRD9i7QWFy2erLU85HxsEv7zM5ET19JR/PNAwM/taMXAAAAAJa7QwPV6/55/6HrntjXdWxLxbH3w+374zO7PvMfs0pB2arMUuMbbi8//vGjiZ6Xn9nfcX1TX91lPiUAAAAAsMz0DpeuqT7cdM2PGjubw87ND1NFXyw+VfjFUjs6p3/OvCaLXBb+XnwSDtXrr+hs/HYY32BHLwAAAAAsBy2d9Zc/3dzxwrbqgQ+mDuKaOZgrfSBXquybfJRFPgsjO878sPFwS0PP3n/w6QEAAACASySRSKx58dCBmx/Ye+TfN+8+dTY9YzeWns8aT+/gHMncui+TTY9uGA//QWBsV3P7Y13D5Vf4NAEAAADAV6i+t/7KJxsPl4Xb7t/PPjwtlv88flommzO7rex4OIit+99+1tp2bdfxSmMbAAAAAGCpVXY3Xhtmqb6SOkArU9xl3YKfv2SyL8vurhp86xeH9t/r0wUAAAAAS+jnBw8Uh1vr39qY3omZfbBWyemc12SyC87C36dby058Ef7DQXvn4B6zeQEAAABgMVX3NKx7vrV11+3lxz/IHclwOueW+41xmezis5t2nzz3/dojr1R0Nn7Tpw4AAAAAFsHuQ41rn289kCp3P5s9UzXv1nuZbMHZSDIc3PfaC20HrhsejvsAAgAAAMDFSryaWLOrub0ilLtfFC7pRvIKO5lscbIwCuS95w4cvNWnEAAAAAAu0jP7D5XdVnb8zEwBN73iebfay2RLkG2tHP7kZwdbNw+cjq/1aQQAAACAC9Q5VL62pL15+23lxz/P3EY/XcLFcuamymRLm91dNfDuj/e339w/UuaDCQAAAAAX4oWDLddtrRx6N6eAi0/dUj/5WjyvnJPJljC7u2rw3ecPHrzeJxMAAAAAvkRdd+LqB2qPvLZxrsOx4qfnnqMqky1JNpK8t+boO7U9iQ0+oQAAAAAwh0QiseYHDd0tm3efOpfaOTm5SvJvp59+XSb7SrOR8e/vPfLH2p76a3xSAQAAACBP3/GaNdVd+zbdUXHs041Zt8zPWjLZJco2hdL30UR3Z9PRvZf5xAIAAABAlj1djVeEHZK/zx7NUOg2epnsUma3lx//4qcH2h7ziQUAAACALD9vO3DvTaUnxycL3lllW+Y2+SXJbtp9cvzOPUMfhfLu33c29Pzy2daDfS+2tbb8vK217cf724e21/a/vKXi2OtFFcfObFri30W2/LO7qgb/tre37lqfWgAAAAAImnurr7yvpv93sckZqKenZ5/mPV/kLFXU3Vx68sxDdb1/ejTRs6v8cNMNR06WXj7X79g6UHXtTw603f5EY1drKIPfmZkTvLS/p2z5Zan/7x9r6K7zyQUAAACA4IeNh7ekbn3PPeRq9u3xi5WFgi55f23/X14Mu4YPH69cN9/ft3O4Yn34netC0fvxUv6esuWbhf/vP+s6XrnepxcAAACAyHt8X9dvZs3eXaJ5qqFI/uSZ/e1lNUcar1jI79w6ULv2pfbmb+6o7/ntjSUj5tNGLhtJht3cPd1DFQ5cAwAAACC6DgxWfyOUru/OWbAt2hpJFlUMf/hiW8u2/Udr1i3W79/YX/sPj9T39IRxD2eX/j1Yy2ml5jY/13rwOp9iAAAAACIr3t6y47ayE59vnJ5vmr4NfnLeafrAqwVnI8lwSNqHP2tt3bYU76HrRPnXHqnv7QujH8aX7j3IlluWev3ppo6W3uFSH2QAAAAAoumuPYMv3Bhm4qYPtCq0U3Kh2W3lxz97vvXgzqV8H20DNVfuqO99eaneg2x5ZuE/HPy9rrd+g08yAAAAAJG0rXqgJbUTMrNjMj5SoFy7+GxT+Hc/2djZUt+bWLfU7+Xnh1q/cXfV4NuF5gkv1fuTXdrsptKT4z9IdL/okwwAAABAJD2a6PlNwYOt4nMccDWvbCR5T/XRtyoP77vmq3gvfYOla3/ScujZm3afOrt470G23LMH9/a93j9cttanGQAAAIDIebyh67WcnZL5RdoCsjAT99wzLYde7PofX90Gy95jNZc9UNs/tljvQbb8s/D37EzTkb2bfZoBAAAAiJzHGrrG0mVZLOt2+PwdkxeThfm+73f2V17+Vb+nnYmeXTeHW/cX4z3Iln8WZkiPh0P26vr7a3ygAQAAAIiWnQ3d78SmZ9ZmCrSsGbYXm6XGM+xs6Om7FO+pti/x7XD41tsLfQ+ylZKNJB+oPfKnuu66r/lEAwAAABApYQbv+5OHkqV3SManytmZGacXl91Wfvzc441dD1yK95R4NbHm+3v7frfQ9yBbOdnWPUNfPLHv8DU+0QAAAABEyo76ng835t8On3Nr/MVlRRXH3t/XV3/9pXpfz7UerF7oe5CtrKy8o/Exn2gAAAAAIuXh+t6PMjNO43McbnUR2S1lJ/7SfXz3lZfqfW2vORILh28t6D3IVlYWCt4XfKIBAAAAiJRQ8H6cvSMylnWYVf6aT1ZcOfxqIpG4ZO8r7Ez+TlHl8LmFvAfZysoUvAAAAABEzkN1fZ8ULtJGJtfFZvfUHP3jpXxfTzYd/s6de4bOLuQ9yFZWpuAFAAAAIHJSBe+sEi2eW6RdTLa1cujVS/m+diRmdvAuxfuTLb9MwQsAAABA5GTv4M3MOJ2eaRqL594aP5/s5tKTf+45WXbFpXpf99UevSE1g3ch70G2sjIFLwAAAACR81Bd70zBO8ds04vJtlQce7e5v+a6S/W+nj1w8MWFvgfZysoUvAAAAABEzkzBO32re8GZp/PP7ig/fnZXc8f2S/W+djZ0/2ah70G2sjIFLwAAAACRM1nwpkqzeN6M08y6yCyUbjsTPe2X4j019NVtCDuI31rwe5CtqEzBCwAAAEDkPJy9g3e6mI3NuiX+4rK7qwbePdRb+5XP4X1sX/dTt5SdOLcY70G2cjIFLwAAAACR83B978exsAsyNn3reyxvt+RCsnDI2dlnW9ueSSQSX9n7+VUisfb7e4/8dbHeg2zlZApeAAAAACInVfBmbnvP7IycKtHSxdlFZ+Hne2uOvlXa2XzVV/Feek6Urv3JgbbnU8Xyor0H2YrJFLwAAAAARE6m4F2idePuU8kfNXa0tB2tvmyp30v80P5v3V01+F7mQC4rUkvBCwAAAEDkpAveyVvdc+aa5t0Gv4DstrITnz6zv/3BoyfKl+x9NB6tXR/mCf96qd6DbPlnCl4AAAAAIueRgjt4p+ecxgvtlLy4bGvl8EfPHTh4+1K8h97jVVc8VNc3FEYzLOl7kC3vTMELAAAAQOQ8kuj9KDPSIJ5XoKWfL1JWXDn8yXMHWu/qHqpYt1i/f9tg1VUP7u3715tKT577Kt6DbPlmCl4AAAAAIifs4P1o6jb39O3us2+HX8zs9vJjH+9q7ij7RXvLPyzk9+4dql733MGD3w3l7h9unC75vqr3IFuemYIXAAAAgMhJF7zZRVlmxbPnnC5eFnbbjt9X2/8fNd0NWwZO1q6d7+/cc6L0ilAS127dM/TBUv6espWVKXgBAAAAiJxH6ns+TBdlsfTt7gVKtMXPRlJF77lwyNurTzV37trfX/Ot8/2eR0794vKKzn23Pproqd1WPfDhppKR8Y3Z/+5L8h5kyylT8AIAAAAQOTvqez/M7IzM3AY/MnvX5BJmt5SdOHtr2Yl376s5+ucfNh7+3dPNHS/v2t/+66ebO3/z+L6uP4QD1P4U8tdvKz/+cThIbfxS/Z6y5Z0peAEAAACInNQO3nRhlv9Y6DWZbLlmCl4AAAAAImdHoueDQre9Zx9iJZOthEzBCwAAAEDkhJm2H6R2P+YUZvGpW9+nlky2MjIFLwAAAACR8+jkDt6R5MyBZeExnn2YlUy2MjIFLwAAAACRE0Y0vD9TnuWv7GJNJlvemYIXAAAAgMh5NNE9WfBOHlYVL1yiyWQrIVPwAgAAABA5YUTDe/kHWBXeLSmTLe9MwQsAAABA5OxsCAVv9u7I1GP65+znMtkyzxS8AAAAAETOzkTPu7HpQ6tiBXZFymQrJVPwAgAAABA5Oxu63508qCpe4Fb4+PRBVjLZCsgUvAAAAABEzs5EquCdvtU9+zGnTJPJln+m4AUAAAAgckLB+04sfat7VnmW+jkWn7r1XSZbCZmCFwAAAIDICSMa3pl163umRCtwW7xMtkwzBS8AAAAAkbOzoevt/OIsd8apTLYyMgUvAAAAAJHzg4buTMEby59tmlWmyWTLPVPwAgAAABA5oeD9e35hFit0kJVMtswzBS8AAAAAkfNYQ/dbuYXZyEyBFs8v02Sy5ZspeAEAAACInMcaut6adWhVqjSLz3GglUy2TDMFLwAAAACRE3bwvpldnsUK3hIvky3/TMELAAAAQOSEgvdvqdvep253zyrM4jO3xMtkKyFT8AIAAAAQOWFEw9/sAJXZwQsAAAAAK9CzB9p+/0Bt/0f5a3vN0Y+3VQ98ct5VNfDJnXuGPttaOXzedUf5sTO3lp0477olrFDSnQkF3pkwY/VMODxr+vH05MpkJSOfz7U2zb2+OM86W2jduPvU+da5ea7xyZ2mJTOHguU/yhaeKXgBAAAAYJkbGin7Wljrh0ZK108+niqdXEdPlV/VfXzPN7qPV23IX13DldcdPl55Q2p1ph+PVdzQcawydnCg6vbWgaotB1Pr6NRja3g8MFC1rWWgdnvOOlqzvfno3gcSffU7p1bd1GNv3c763vrHansST1X37HumJmtVd+97ZnfH/j13VQ2emTogLG/UQEnWuAHZgjIFLwAAAACw6HZ3NG+4r+boR1NFZGpm7EgYNTCSzOzqDY+yhWcKXgAAAABg0ZV3NoaCt//DjQXmx1qLtxS8AAAAAMCiqzy875vba/s/mLOcjJ+nuJRdcKbgBQAAAAAWXXVXQ6rgfX+qmBw5T2kpW0im4AUAAAAAFl04fO0boeB91+7bpc0UvAAAAADAoqvrqf/6/bX976RKyNh0IRmbLitjWQWlbGGZghcAAAAAWHSZHbypQnKucQOyBWdlh5sVvAAAAADA4qrpaUgVvO/NzIxNl5LZz2ULzRS8AAAAAMCiq+6eKXhjeXNks3egyhaWlXUqeAEAAACARVba0bThvpr+jwodFJZTXsoWlFV0ND0/n/9fJsaKvz0xWvzkeN6ayFqXIHsiPN4w8ebd63xyAAAAAGAZeO7AwW9tqx74LLugTK/8wlJ28Vl5Z/O8Ct5Qpr4YSt5zy2mF3+lcKHjPhufvj48VDYyPFj0WHr+VfPPRtT5JAAAAAEuse7j8is5jlVe1Hq2+tql/7zcTffUbansavl3Tve/bew7v+0754abr0ivs6rzupUMt3/1Fe2odyHo8kPPai20HvvvsgYPXz6y26386/bha109b2q7f1dxxw67mzsn1dHj+9PTPT0+/ttTZj5o6b9iZ6I49muiJ7Qzr0em1c3rtqO+J3V/bv2l77dFN94e1vWb6MaziiuFNRRXHNt1admJTmA+7KZS7z95cenI8czBYoQPDZAvOyue5g3d8rDgeitTkcl6h3P0irHfC7/ryxFjRE+Fxw8Tr37O7FwAAAGAh2gcr11Ycbrr8+da2q/Ycbtj5k5ZD7Vsrh07cVn78lTv3DP3p7qqB1++pHvh7WO/cUzPwflgfhOcfhvVxem2bWp9uqx787Hzr7rDuqhr8/Ht7orXCn+MXYZ29VGtr5fDZUNKe23KedXv58fHbCqxQ5iZv2n0yeePuU1MHgOWMGBiZVVDKFiebd8E7mip4i0KJOlfBuuyy8fA7/z3s8G2feKP4WxN/u3Nd8u17fCEDAAAAXIhfJRJruoYrr/75wQNPPlB7pO+R+t63UwVf5jbxrKIpllfqLVmW+jk+MmtXo0wWxay8c94Fb1kYgZApUHN3zoa1vLMvwvN/C2tL8leP+oIGAAAAmEtDX/11P2jo2RVuz3/1ltKTH4bdmWezdw1mZoHGZ98+/lVksXj27zIik0U2qzjcOM+Ct6giU6KOFmWPRcgtWJd1VvRpWKfCzzdMjG4xugEAAAAgZW934sqfHmi/NcxZPR1u1X83PT81VmDn4Kyi6SvOYjm7GGWy6GZhbMp8C949YRfvdHGaNQ4h77UVkqUOZasOr13lGxwAAACIrEODe9b9S1vLU/fVHP1jOCBreqdugd2D8fTsz0ubWZY1s8oPz/uQter8srTgWjnZ+MRo0V/Gx7ZuTr61da1vdAAAACAyOgaqrny6uWPX9/f2jW0qGTmXKlJjc80AnWNn7aXOYjnPZbLoZWWdzc/O53MfCt7a1O7X8TnGIqzULDw/Ex7rkmNFV/p2BwAAAFa1piP1l/3z/o6bv7/3yJ9uKTvxRSw+M+d28vn0SpVIyzGbfeDUSO68UpksQtlFFLx1mUPMZh1qlvV8BWZhJ2/qELaXw+OG5OvFvuwBAACA1WVg4Nk1dT2Jr4eD03q2VBz7LLtAnSmRZperyzGLlcysnPENMlnEsrLOpnkVvKEIbZhI74gdnS5LUz+PZkrSFZ2NT2Vjoei9ITlqZAMAAACwSnQOVq37aUvbA/dUD7yTnms7eet3fOYW8Jkdgss8K3Dw2lwHs8lkqz0r72ycZ8Fb1DheYJbt5OiDUJKummw0HMA2Wvygb38AAABgxSvraL76icbDfTeXnvx8qjA9nXOrd3okwsbs3YHLOksX1Fmvl4zIZJHMLqLgbZ4sQSd3wE49ZubYjk4XpKskCwXvh2E9k/zvf3IhAAAAAFam0s6m6+6v7f/9TaUnx7OL0pyVtVt2RWTp3bzZYxtKTstkkczKO/bNbwbvaFHLzMza7Pm1eTtiV0/2WSh5d47/763rXBEAAACAFSXM2938vT1D70+WpfGRrMPLpsYe5I9DWCnZ7N29ebevy2QRyso751fwhtKzdaLgeIPZr62WLLz+SVgPuyoAAAAAK0L//ypbu6u5/cniyuFPNxY4rCmzIzC+MrP8g9dmbmOXyaKXzXcHbyg829KjDNJjDaZW0dRhZas0C69/FJaSFwAAAFje+o7XrH18X9cLWyqOfboxuxDKKooyZekKzWbdvp53K7tMFqVs/iMaitvn3PE6ep7dsKsjey/M540lx7a4WAAAAADLT9ORxLqnmzp33V5+/POcXX/pW7yzRxys9Cw+u/ySyaKYlXc2/WQ+3xOh4O1KlaDjc403WO3ZWNFfJ17fck3y1S0uGgAAAMDyMTRUsjaUu8/cVn58fGP+7teSOUYgrNQsr+zKLoRlsqhl8y14Q8nZU3CGbc6og9WdhdENL4+/XrTelQMAAABYNn7c3P5EURjLkH8QU87u19WUZe1qjMlkEc7mvYN3rLgvU3ZmF6KjeUXoKs7CLuZz4efmif9z5zpXDwAAAOCSe6ntwF1b9wx/UOgwslkl6SrIpnYvjuQUwekdjTJZ1LLyzsZ5FrxF/ePTh5ClDiXLGWMwPdogGlnxx2FtcwUBAAAALqmOoaprv7dn8L1U+ZMpfdJzayefTxVDqy3L7GZMlV7Zxa9MFrGsoqNxniMaigayRhVkHsdH82bWRiP7e3LMqAYAAADgEvmXjgPrv1975I/p8nOqFB3JmV2b/fNqyWKZ0jd3N6NMFsWsonPeBe9Q2MU7VXoWOIgsalkofofGR++8whUFAAAA+EodGtxz+eP7uro27z41nn0Q2ay1WrP47IOnZLIoZuWd+56Zz3dHKDWPzXkQWQRXKHrPhLm8211VAAAAgK/U080dD95aduKzqd27M7duz35cjZllWZmC93DTrvl8d4QdqycUu3lrtOhPYV3jygIAAAB8JZqO7v3WXVWDH87M5xyZGWOQfxjZKsy+vOyVyaKTVRxufGo+3x9hx+qp7JEF59nZGqVsPIxtaHR1AQAAAJZcaUfT5Q/uPfJvm0pGxmPTB5HFMgeShcfMrNpVnJWczi18p5/LZFHMKjsbn5zPd0goM0/nH0KW/zyKWVgfT7yx5R9dZQAAAIAl099fs+b5gwd33FJ24lzmwKXsw5dSO12zyp9Vm5XkHzg1NcZBJotiVt7V+MR8vkfCIWP/GsY0zC45x6YOHotuVjQexjQMTIxtvczVBgAAAFgSu9ubv3l31cCbOTv4Co0vWO1Z1giHQrety2RRyioONz02n++RUGL+cmrubHoVzdrdGtlstPjz8Hi9qw0AAACwJHY2dPVsyi534uc5fGm1Z1m3rRcqgGWyqGTlnU075/M9EgrMX2dKzsyIguL8ojO62VjRryfe2HqFKw4AAACwqHZ37L/5jopjH81ZesbPU4iu9syyIrzKOxt3XOj3SPI/7w47eKcLXmuu9WlYxa46AAAAwKIZOFG75tFEzyvp3bux8xSfUchiBXYyxuIyWTSzsIP34Qv9Lkn+V/HaUPC+PJGaOTuac8BY1lxaWfgz+tfk/314rasPAAAAsChquhq3bN59KjN/M5Y9viD7ELKoZHOMcpDJophVHG588EK/S5L/fXeq4P3N+Gjh3atT4wpk4c/o44nRrZtdfQAAAIAF29vTcOX2mqO/jZXMlJwbJ3fupXfzjiSjlkV27rBMViALO3gfuNDvk+Ro0bpwsNhvcorN84wriGoWXh8Pf04DrkAAAADAgv14f/udt5WdOLsxc1v2yOSt2dk/Ry4ryd7Vm/5nZbJoZmEG7/YL/T6ZGLtjXRhD8MrE6Myu1VkHj8nSYxo+m3h9y1WuQgAAAMBFGzhZe9n9tf2/L3jAWPw8h4+t9ixvxeIyWXSz8s59917od0ryjaLLQsH725xSM7/klGXv5H0x+d//5GIEAAAAXJx/3n/o3tvLj5+JZe/cS8/kjM8cuhS9bKRw6SWTRTALIxruutDvlImxrZeH4vJ3E6PFmcPFZhWdsuzXXwvLLl4AAABg/hKvJtbsqO99JXNrdrrgieft4ItgNjO6Yeq1/J2OMlmUsrKOpjsv9Hsl+UbxVME7NntMQf7hY7LJdTYUvsWuSAAAAMC8NfXXXhdm735WaGxB7DwHMUUii+f9M/Gs12SyiGUlHU23X+j3SvKNLVeEEQ2/n9qpOr1jdWbmbGYnq2wmC2so+e6Ota5KAAAAwAXrOlWxdkeip3VTyfThYiXTByoVHFkQvWzysLVZRbBMFs3shdYD11/od0vy9aIrJkaL/jC1S7VossScKLBkOXN4/x7WBlcmAAAA4IL9rO3g+ntqBt7PKXfSt2eXjMz8HNFs6hb1kcnyN1YyM8JBJoti9mTT4W9d6HdLOGTta2EH7x8m0nNmp2fOTq30LlZZThbGNISfH3NlAgAAAC7Yi22tj924+1RmzmYse2WKnehm6bI3fZt6pviVySKXjSS3VAxfc6HfLcmxyYL333MOFhsrzik1ZQWysaJfJt++x8UJAAAA+HJHTpZedl/N0d/kztscybktO/LZrMPWRnLm88pkUck2h/8QdGvZiasv9Psl7OC9MhS8fwxr9liCTMEpm5WNFn+UHN16tSsUAAAA8KV+1nrwhq17hj7JKTfjp3PHFUQ9K5m9mzG7AJPJopKFgxiT39szOJ+C9x9CifnqrF2q+eWmLCcLIxzOhvWEKxQAAADwpX7Y2Bm/cfdI1qFKI7k793IOXIpoFk8fvJb9KJNFLyuqODZ+f03/VRf6/RJmzK4P60/Tu1InZ8/OzKEtyuxalc3OQtE7ENY6VykAAABgTodP7Fn7wN4jr+Xs0suMJsja0Rr5LLsEPp2by2QRyu6qGjz7+L6uCy54k6NFV4WC98+TZebkyio0s3axygpko0VvhXWlKxUAAAAwp/q++s1hnubHG7Nm0MbSt2aXZI8nkKXLrpndvSMyWeSy8B+EPvl524H1F/odkxwrviaUlX8ZH03PmJ0sLqcfs16TFcgmS9+YKxUAAAAwpx2JnpduKj05nl9mWoXX1K3rp/PmlMpk0ckequt7va63/oJ3lSbHiq4NYwb+OvchY8VJ2dxZ+Lk2mUy4WAEAAACFPZLo/Y/04Uk5BU/ec1le2SWTRTEL3xXbqgeHOo5VX/Bc2FBSfiOsv2UXl/lFpux8WdHvwrrC1QoAAACYZXi45LLiyuFz2QeKzRQ8IzmHjMnydzWeb5evTLY6s827T43vam7fPZ/vmTBf9lth/b3wjtXigjtZZVnPx4r+HtYGVywAAABgltqexGOZeZvx3MfUgUqxuGxjdtE7R+krk0UlCwXvmaYjNbfO53vm/71R/J1Q8L5baLdq/ngCWYFsrPhseCx2xQIAAAByHDlZuvbh+t6umXLz9OyyU1ZwJqllRXWFHf8f9J6suGw+3zVh9+l3w/pw1k7V8+xglc1aFa5aAAAAQI7mo7VXbaseeC1n1mzJeebQRjybHNuQvbsx6zWZLApZarf/4/u6fjvf75pQTm4O6/OJ7PmyozNFZih/k7LzZ+H5b5Njd7lwAQAAADOebu789veqhj7PuR27YKkjy5lPGs++ff20TBaZ7ObSk+MP1fU9Md/vmlBW3jVZVhaaLzt1iJjsS7JQ+r6THN16lSsXAAAAkBEOSnpwU8n0KIL46dyRBPGsMQUyh23JZGFtqTj2fk134vr5fteEcvKZvJmyBZ/Lzpt9PD629WZXLgAAACDjmZb2gckdq5kiM6vciU/vZpXlZLH0KIf0rewlMll0su21/X/oO1Z62Xy/a8LO1Lbs2bLjeaMIZF+eTaQOWhst3uXKBQAAAEz6XfeLa79XNfjHnB168dNzHyomm37MLn1H8v4ZmWwVZ+Hxmf3tz17M900oJ3+fe2BYUd4oAtkFZl2uXgAAAMCklv6ab99RceztWMlIzszNWNZIAlluFssuv/JmlMpkqz3bVjXw0QutrRvm+12THN1ydTgo7J2p3ahFubNlc3aqyr4sCzuhX3P1AgAAACa9dKjlzqKKY2c2pmfwFty9KsvOCs0mjclkEcnurz1y6uBA1eXz/a4JYwduD+uTifSO1NGsEnO0OO812ZdknyZHi9e5ggEAAABrttf077i59OT4TKEzUvBRlv3aSG5WIpNFI0sdxljb01B8Md81oZR8KZST4+PTYwbG88YPhF2pSdl8sqINrmAAAADAmkcTPS25BebsXayyvKzQfN4SmWz1Zw/V9Y5d7HdNKCZ/mztL1lrICn+e97qCAQAAAGse33f4P9JFZv6hStm7VmWn55xNKpNFIQs7/b94qrnjqYv5nkm+vvXyUEh+OllMZubJzhwilt6VKptX9pIrGAAAAETcrxKJNffWHH1vVpGZ9yjLy9KzeQs+l8lWYzaS3F7b/9qhgZorL+a7JhSTd9l1u8hrtLgz+Z/bXMgAAAAgyroHy6/avPvUJ+nyMjVzM5Z+Hp+ZwSnLzeYqxGSy1ZrdXn7885+2HHzgYr5nkm8UrwuFZFf2XNnM4WEz4wZk88zCOj3xxtbLXMkAAAAgwvb17t0eCt4vZg5Vmpk7G8ubwSkrnGXfwi6Trdbs0fru/oNDlRdVJoZi8pqwXs8pKEdn7UaVzTcbK/ptcqzoa65kAAAAEGEvHWp5/qbdp84VOlQpZ+6sbHYWl8mikI0k764afDd+qPmbF/s9E+bHbgmF5NmpWbJZM2Und6hm7VaVzTMr+lNY613JAAAAIMJ2Jrqrb9x9atbBYpmSJ35aViCbdQhVzi5fmWz1ZDeFg9Wea217YuBk7dqL+Y6ZeO3utaGQHJopK7OLyqK8IlM2nywUv38N62pXMgAAAIionhOla++oONaa2qEXS5eYeSMIYnFZoSx7x2POIWwy2SrKQrk7/sPGwz0L+Z4JYwW+E9a7M+Vk7kzZ9M+yi8jGit8M61pXMwAAAIiotsHKy++vPfLKxuzdqbN2scoKZbE5xjfIZKsl2xT+w8/2mv5XKjobFzQCIOw2jYcycjx7N+rEHEs2vyy8/k5YX3c1AwAAgIiq7am/8qG63jdnysuRZPbzWE7JKcvJskY3ZN/SLpOtlmxb9cBfSzubvrOQ75jk2NYrQgH5embX6eTKzI/N3ZEqm382VvRBWN90NQMAAICIev5g6/r7a/s/nblFeyRrxuxI3mFj/5+9ewGRu773hx9CCEGCiIhIERERERERz5p6d2cSr9W0x6ptrbU9Hpvj499jN/d7srmZmzF3c79t/n1KK32kiJQiHpHi4xG1OxOPj38pIiIiIiISQgjpzDyfuf9mdjZ1k90ku/N6wZffb+a92WRmZ3bgk8/v85X12Yiq6wSbVMlkwzi7c+7OLxZu7b76VH6/FN69f1QUIx+tbq7WOGKgn25V2YCyKJ5/FcfLfJoBAABAm/rhwhcuSM3efbw+eiAxizM5l1PWOkuurv4ve5fJhlN219ydf5+5fsWEU/39kj+UOjcKk+/kM/2PHrBObUXR95tYl/s0AwAAgDb1g3k7vvf9aQcai5dd/RU6ZX2zFsVemWy4ZlNLYxnef2r1qttO9XdL/r/vKXbvPhxjBHKVQmSyKFnpPk0VZKecfRtdvAq8AAAA0K6eeW71hIYNxKYW58s2XcYt6ydLjnCoFoFlsuGZTSgXd7OzNyy7bjB+t0Qh8ntReHwzXytIphLFylTDPFnZKWVH4nm+wqcZAAAAtKmZ65c/Ut1cqbr6zOaUtc6ai2Qy2TDNbpy+PxfjWl5av3vWhYP1uyUKjwuSxclksbJxxIDsFLOj0c17pU8zAAAAaFPT1q2YUe1K7eiqd/l1VIpAshNkZrXKRkB264y93/xs6cYV/7nm2XMH6/dKdJleG+vT5k3C+p0lKzvpLLp3j8dRgRcAAADa1VNrV6/uqF66nZw1m7yMW9Zv1tGyO1ImO/uz7089kLtn3vaP/23Fc3c/u3X+2MH6nVI4NGlMdJe+GAXeXHKkQOslG4TseF4HLwAAALSvX654fld1FEFy46WOxGZMsn6yE3RKymRnc3brzL3HHly8eevKHQsuHszfJ4UP7hodBcfHmjcIyzeNGpANXhb36+AFAACAdvajRVt+e31DQbOnPm+2OqNT1jLrqHb1Jjsjp8pkZ2920/T9xycvfOHVGetX3DR7w9Ixg/37JDpJO2JkwOctNwjLpFtsGCYbhEyBFwAAANrZpDm7fl8tYNaOteLmwYKs/6xeUKt/bYdMdhZmN0/ff+yuuTvefmz5+keXblt0fvfr3YP+uyRGB1wUhcY/JztOq12nzRuGyQYzS+Xi/qt8mgEAAEAb2vqH7lHR0ffi9ZXiZUdi1mzDaAJZ6yxxKXzj5fAy2dmQ9RRumHbg+A8XvvDRz5dteHTJpu7zh+p3Se6j+8ZER+m2Yjdpc2Ey39R5KhvcLI7FWccKvAAAANCOtuyfPTYKQH9qmM/ZsLFY0+xOWWN3b1f/c09lsjOVFQu7E2fvOhyjGA7O2rB88t693aOH8vdIITtxTIxlmBVdpMf6bAiWaT1PVjZ4WTz3uZwCLwAAALSnrXtmnnvbzL2vlscPJIqXieKR7ARZoqDWkdiETSY73dmEOE/P3v11jFx57fGVzy34xYr1l67aNnfcUP8OKfSmxsSIgIej0Hi4Pj4gOUqg9W3ZYGalYq8CLwAAALSjDbvmXJCatefNjsRmYs1dq7ITZM0dlLW5vTLZUGelDdOO3TJj3xcPLt781x8v3vzMb5579qa1O+eMP12/PwrZ1OgoLD4YBd4vEt2kfbtOZUOemcELAAAAbWrN7rkXR8df7/WJDcQaNmzqqs+hlbXIpra4dH6qTDZ0WXTpHn9g8db375m3fd1/rln52HM7Zn/vTP3+iHEBP4pRAV/lkqMDWhUhZUOeKfACAABAm3p2+/zL7py786NSwbJWwOypFzOLnaqy/rNkh29XtQgsG+rs+3HfjdP297tunrG/cOvMvbn+1u2xOmftOd7fiiLqsfiPj37XHXN2Hb1jzs4jrVa8nw7fPW/Ht3fP21la98zb8VV9bf/ynvnbP79n/o7P4/ansf4e68P4+uxdc3e+c8fcXX+dOHv3a9GV+8dYB34wf/ueny3buO3J1atXztmw9IkFG7uvm7zghXPmbFw2bt2uOaPP1O+NwqHU2CgyPhLrSK5pJmwu22cDMNlpyRR4AQAAoC0t3br4yigsfVKbK9vVdxMnWf9Z387enrM2+/60A4WYt3zs9ll7vo7i4cdxOxvHd+6eu/OtBxZteeOnSza++ovlG15+bPnzL/3q2XW///eVzx14YuVzu369au3WKavXro21urh+vWrNiidWrp1XXf++cl1XzHx9urr+7dl1T/182cZHH1m26ZHWa+Mj0YF63w8XvnB3qzV54ba7b5+195b4N0+I53pC8Vhblds3T98/ITVzz4Qoxk6IESPlY+V2cd05d9eE+xds76iu++ZvS5xv7/jXRVs7Hure3PFw96ZYm+N8U2WV73tkycbrfrl8/XW/WtG0KvfFc3NtPC/XTqmsX5fWmtL5k6vXXPPMcyuv+c26VaU1/fkVV83csLy0Zm1YeuX8TUuumL956RULN3df3r110WUrti24ZOXO+Rev2TH3ovV7Zl+wafec817Y2TVu9+6pZ+XvjHxv+twoLM6JsQzf5E8wPsA63Wvi1T7RAAAAoA0t3tJ9VRR4P0t2p3Z0Jc8bO1dlfbOOszAr3i5uuhVF3GPRLfrVT5Zsejm6QZ+OAuSDizYv6ozL+i/fvvc353gH8F3l/5YaFUXdC6Nr92AUFI8Wu0lztU7Sxg5T2RnIetMKvAAAANCOFm7pvvqueTs/b95ArLbBU1ffzcVkLbJ+7jv9WU8hNWv3sXvnb3/9Z0s2Llv6woLO7u5uL3ROSeFvnWNiLMDdUVD8qNwtmmoaGVAaEVAoj2uQnZEso8ALAAAAbSkuF78mOni/aJx92tNQzJSdIGteZyTrKcRYgiMxx/XVKavWTPv5sg2XL3th4bnbds/wAueURRHx8lhbo8D7TWXWa+uNv2RnNsukr/FqBQAAgDY0d2N3FHh3fFnbOKzSBZrcWEx2gqzPed+O2qHKYvxCLubpfvGTpRv3xNzbGLswZ7xXNIOh8EHnqFx24vlRTHy01LWbSeeSnbutl+wMZwq8AAAA0I5mr19ybRR4v2roFK3McG28T9Yqa7XhWseQZz2FO+buOvzjxVuWLdy46AqvYgZT/v+bOCYu+X80irtvRtEwV+oYLY8AaBwVUO0mlZ0d2aGUAi8AAAC0o5kbll4XIxq+aixa9jSOJZD1nxXvP0H37WBnqVl7vo4N07Yu3LT4ki37Z432CmYwFArdo/K9qcuiePhUFAuzUTw83n/3qHV2rokKvAAAANCOZq5fdt2dUeDtaOoYTRYyZSfOOpLnzcdBym6cvv/45AUvvPHEs8/dsHb7vLFeuZyqwqFJo6MweFF0hd4WRd1tcSyOYjiea97Uq2H+q+yszTIpm6wBAABAO5qzoTSi4cuOZJfq1MZz2T/LkkXgg4OclTZQ+zo2Tpv3/O7Z53rFcrLy700aFQXcMflM5/jYoGtSFHXXR2Hw7Tgey1Uu888lLvlvtWRnb6bACwAAAG1q/qbSJmtflDtF+44fqI8MkLXMuvrfDG0wsvsXvvB21/PPXueVysnIvxtdur0TL45Nue6OouCCKPC+HMevqt2fuX4u95cNw0yBFwAAANrTwi3dV981b+fnpTmzyU3FGubOyvrNmufxdvW02Jht4FmMZDj60yWbDj69dtX5a3u6vVDPsML/uXN0IXvLmMKhWHHMZ2+O81vH5A9NHBfrnPyhSbVVyKZjdZ5bOJSqr2zq3CiynlfITrwgvibWxNIq3o6vv7BwKH1RchVHJ8SfuzjWJfHnLok/f1ncd1l03l4R68pYV8W6OtY1cf918TUT4nhLFPnScbwv1tNx374o6PbG+iLOD5c2TGu4pL+yaVc23eJyf9lwy/K9aQVeAAAAaEeLtyy+KjZZ+7RhNEBl1mzLUQSyIR/7cOuMfUce6t68bM3OeWd8JEOht3NMFBHPi0JSFBrTP4oC09Nx+5mWK5uaFcc5J1rxPZZFsXFZ8Ri3S6t8Xrkvm1oZ5+uSK76+tOrn6c1R3NoWx22l2bHFY+V26f7y2hdffyDyA3F/6diwIov7X4yve7F4jD9fWnH+x1jFLtdX4mtilY9x+8/xd/+l70q/Fuv1viv11xbrzeJIhBbrncjei+N79WPpPBvr/cr6sLji3/P3WB/H+iTWp7E+i68tFnCLXbnfxs/pWL0ImCoVAWu3k+eyEZfFJmsKvAAAANCOlm5deGUUeD9JdqUWRxKUNvnqqo8nkPWTTa1kicJvw2iHAWa3zdx7/BfLNjyxfe/0MWfqNZHP3BkdqtEdmk0/GQXDXVFEeituH27e7ClX6SDMVZZMJjtzWbGr2ycaAAAAtKEVLyy4/M65Oz+qbuh1fa142VPb5Et2oqxpdm7XCebq/pPs9ll7Dj++Yt0jizYsGX06XwOFQ5OKBd0rolj0SBSJfhuF3U/j9tE45ppnfuZPMA9UJpOd0UyBFwAAANpRjAG4ZNKcXdnmMQHNYwRkrbNyN+7BlucDyW6fuffbR5ZtmPJCz/TTUtyN0Qvj8qV5rqkpufKogU+Kl/f3V0CyLOvsXvFeVuAFAACAdrR+96wL07N3v9VR6y5t2lgsMTNW1jerjW+ojG6oFn8Hkt00ff/xn3RvmrFl97QhHctQ+NvEUfkP7hobhdwfxfpdpahbvry70gVY7RJsuPxbJpOd1VlpJq8OXgAAAGhPW/bOHH/rzL2vdiQKmM1zYWX/PGscuTCQrKfw6PL1yzbtmjluKH/OUQS6NApD06IQ1Ju8rLtcLGp9ybdMJhtWmQIvAAAAtKMde6aPuWHagZdK4wK6mlatICnrN5t6sOVs3e+STZjak/vx4i1/WbN7/pAUdwsfdI6ODr8Yw5BeEOuTOD/e8vLufgpJMplseGTFedk5BV4AAABoX7fO2PtirSO1n2KkrP/5uSe3egox+/jDZ9auvmKwf56FPzw0Kjp1L4zZutOi6PNRvzM7TzTPUyaTDZussiGiAi8AAAC0q3vnbf9dtdu0WMwsFzQbNxiT9ZOd5IpN1Q7/x+o1kwf7Z1nIpMbEfM7J0dn3fhxzimAy2cjPdPACAABAm3tk6cZ9DbNlSxuA9STGEchOnLXo8D1BFqMZCj9ZsnHlii2zB3VTtSjoXhnzOQ9G9+6x5pmd5fNUy3meMpls2Gc6eAEAAKCd/XrV2s3VYmRyHEG5SFkvVMpaZF1Nnb7Jmbsts57CD+Zvy87euPSiwfr55f/WOTZm7D4YBd6Pcomu3VymsfOv4bZMJhtJWXG+9pU+zQAAAKBNPfPcs0s6WmwI1tFVHU8g6y8rFnA7upLH+gZsrbLY0O7o/7V61cOb/vd/DsrPLoo650Zhd16MZDgcM3dLBZ9id1+1wy+XrR9lMtnIzOL2MQVeAAAAaGMznl8+pTRjtjqCYGp9VWfPyvrLmubrdtU3ZuuTxX0/Xrzl5cH6uUUH30VR1HmpXORJXrZdndWZqnX9yWSyEZxl0kfieIVPMwAAAGhTM55fcXeyOHl9V9O5rP+s1Zzeqa2z22fu+fLptStvOdWfV+G/7yl27l4RBZ+3o7CTy2dazeasnMtksjbIUodjKfACAABAu/q3FeuuaNgMrNaxerB+lJ0w66is61usjkr37kPdmw+u3zfzlDZWy2fujOJu6qoo8rxdLfTkso1zOUv3y2Sy9smyqW9jZMPlPs0AAACgTf1g/vYLOmftyTVvEJbsQJX1l/XUZvJWV6ssPXv34Smr1l57qj+r4pzNWG/ns327+MrHerefTCZrjywKvV9FN/9lPs0AAACgTf161XPn3zd/+7f1MQT9dKrK+u/ubTGHN7l+tGjrnnW7Z4w9lZ9T7tDEi6OQ817yEu18Nl3oc1smk7VVFr8XPo91qU8zAAAAaFOzNyw7718Xbf2kvwJlR3OhU9Zy3m5/2Y3T9+cWbuo+pdm70al3fmlDtWzM3G1R9EnO6ZTJZO2Vxe+FT2Jd4tMMAAAA2tSK7fPPiQ7TN2qFydJogZ7aeUPRUtY667fo21N4YPHW7Kn8fKK4OzbWstoMzqZNl3LZ/jdkkslkIz+L+z78Rzb9PZ9mAAAA0KY27585ZtLcXTvqM2N7+nSuyvrJTjCmoaPcvXv8J0s2TjmVn08Ubx6J+ZqH++3my/Z/ObdMJhv5Wfx+eCfWhT7NAAAAoE3tONg16q65OxZNmNrTYtbswfrMWVnfrJ+Zu9V128y9ny3buuCkd7eP4s1VUdD5u8KWTCY7QfZaIZs+z6cZAAAAtLEpq9Z03TDtQK7VuIGOqT39jiKQ1Tt8OxIdvtXsJ0s2/am7u/ukfiaFQ52jo4jz23x17m71cuziZdq1Vd14SSaTtWsW41teKmTS5/gkAwAAgDa2eMviB26cduBoQwGzq/+NxWQH/+nmazdO2194cPGWB072ZxJzd++uF3eLHXv9bLokk8naPduVz94x2icZAAAAtLHnd8+67PvTDnxTL1j21McTNBxlDfc1FHYbb98xZ9dnszcsu+pkfh5RxLkwijZvJzdY6jt3UyaTyUpF33mFPzzkgwwAAADa2Y6e34zunLXniz4bhXX1U9CUVW739O3grRSB756740/rd8wfN9CfRf7/vbHYvftkXIZ9PH+CGZyWZVmVebwP+hQDAAAARv148eYPa52qia7VjobOVVljlsgr5x2V7KnVqxadzM8hCjYXxXonuZlS9ZLsXNPmSjKZTBb/IXSlTzAAAABg1M+Xbfh9uQO10oVaKVQmRw/I+mbJDdiKBeDi1900fX9uyqrnrjiZn0Ncbv1EbKZ0PFnUSc7dTF6qLZPJ2juL+44UsneO8QkGAAAAjPrB/G1TJhQ7UEtFzJ6mmbI99fEDsj4jG5rn8U5e+MKnv1n37HkD/RkUeieOiwLOO8kNlU4wd1Mmk7V5FkXeN316AQAAACW/WP785Ntm7j3WXKxstaGY7ERZT+Ge+TsOrtk1b+xAnv/CBw+Nis7ddKwjDR17tWOqee6mTCaTbfTpBQAAAJQs2Nx9Q2r27i87kl2qlSJmchyB7MSF3+9PO5CLcRezBvr857OTxkSxZrNNoyzL+m4rNmLMpH7l0wsAAAAo2bhr3nm3zNj3Tql42dW4cVh9czFZ8+iG5nXjtANHF2zqHvCu9vlD6QuiaPN5/5dopwoymUxWzWI8w5exOnx6AQAAACXd/9U96oFFW1+uFTK7msYRdCWKnLKWM3g7yh2836zbOefygT7/UbSZnJirmZix2WfmpkwmkxXn8n5QyEwc79MLAAAAqPmPVWuWFTtTO2pdq41drOUxBbJaVh3hUFnFPLqgv9y3r3v0QJ73wvudo+Ny6131zrzk7M1UU9eeTCaTlW7/1qcWAAAA0ODHi7d23DR9f65a0Kx1p1aKl7VOVVlDF29tPm+sH8zf/tlAn/co4lwS6/1kp16xmFNdyU2VZDKZrLKe8KkFAAAANPhfa1dddve8HV+VO1fLXaodyXmzpUKnrJ4dbOjqLRZ5H+re/MFAn/dcNn1bFHKO5OqzNftcli2TyWTV+6LY+02sCT61AAAAgAardsw/7655O1/rqBQrayMIEqMIZM1ZY3fvI0s3vj3Q5z2KNs/kS8WbVHGuZkNRp3S/TCaTJbNsujefnXixTy0AAACgQffr3aMeWrx5XcfUnqaNxOrzZmXNoxl6GjZce3TZ+tcG+rxHJ96LyU2VGoo6TRsuyWQyWawDhQ8mjfGpBQAAAPSxZMvCyQ0zZruaip2yhiw5k7d4/ovl618ayPOdPzRxTBRrsvlMvUuv8bLsVEEmk8mSWZw/7NMKAAAAaGnj/pnj0rN3H2vuYK0XOXsKsuaZvPX16LINBwfyfBcOpS6KS64/ydc2U0peip0o9MhkMlkpS3+bz3YazwAAAAD0LzYKe69hTIH1nVfM4N0xkOc6CjnXxvoy1/oy7HK3nkwmk1WyWH+OdY5PKgAAAKBf98/fNuP70w40zJotHac2dbG2edZ3Hu/Bwk+XbNo4kOc6l514Z7kjr29hp3x5dqogk8lklex4dPE+XXj3fh9UAAAAQP9mPL/8zltm7Pu2tqlYbaOxepFT1rrQ+5PuzSsH8lxHweaBWEcaLsNuXjKZTFZe38S6wqcUAAAAcEKbds06Z9KcXR+UC5vJWbSVubO1rtU2zyrH6ire/vGiLYsG8lxHseaxUldeqbCTql6CXenWSyWKPjKZrN2zGOfyav5/Okf7lAIAAAD+qcdWrN/RUd1ELNHF2jiyoM2zOHY0dfD+cMHWWQN5nqOQ81SpeKNjUSaTnTgr/kfQ4z6dAAAAgO/kJ92bOm+bufdYckzB9V0t5tC2c1br7K12+x4s3Df/hWcG8jxHMWdBf0Wd8txNmUwmK3X0fpQ7lL7MpxMAAADwnSzetPiSO+bsfL+hyNmwqVhTAbQdsxbrnnk7nhrI8xzFnNUnmLdpWZZVWalt+UMp4xkAAACA72bfvu5RP1uycUdtTEGyqNmVXG2cTT3YmMW6Y86uKQN5nqNws7EyW7Pfwo5MJmvvLLp3j8bxFp9MAAAAwID85rlnr7t5xr5cR2IObbWoWR1J0M5Zw/2VlZq951cDeY5jBu+OPrM3MyeYyymTydoui6LvK7HO9akEAAAADMjM9cvG379g23ulzcS6GjcaS86gbd+sPoO3Wuy9debeRwfyHMdl1/uKHXu5eqdeFHVSDd18MpmsvbOYwftA4YNOH0oAAADAwLywf/rony3dOO/70w7k+mw01nWCTcjaJWuxbpi2/6cDeY6jQ++3rQo9tftkMlm7Z38v9HaO84kEAAAAnJQV2+ZffuuMfd9UO1Q7moqcHYlRBe2WtermnTC15+GBPL9RvPljrljMyfQzj1Mmk7VzdjxWl08iAAAA4KTt2DFl1MPdm39XHlXQ07C5WEeiCNq2WfF5qRR4o7hbuHH6gQcH8vxGp94rDXM3M5UiT6uZnDKZrK2yOP8gf2jiRT6JAAAAgFPyxMq19942c+/hWqfqCUYUtF2WuF0s8N4yY9+ACrxR3PlLrXOvnw2XZDJZW2a5WLMKhW4fQgAAAMCpWbdzzvh75m3/a58xBYm5tG2ZTS3nHZWO3phVXIhC+MAKvNnUa8kNluodfKk+my/JZLJ2ylLv5w+lL/UJBAAAAAyKKSvXPHrj9P3lomZyRm31dmUGbVtlXc0brB0opGbtGWCBN/16LnGZdrGwk7xkWyaTtWcW3btP+OQBAAAABs3M55ddeO/87W8nRxLUOlqnNs2obbOsum6MAu8dc3YNdETDGy07+pov25bJZG2TRTfvm1HgPc8nDwAAADBoiputPbVm9ZQJU3tazKjtOcH82hGeJW4XO5zvmrtzoCMa/porFXuShZ/6USaTtVmWSR2J9aN8b6cPHgAAAGBw9fRMH33fgm2fNRQ+azNqm0cWtEE29WAtL66bosAbXc4DHdHwZvLy7IZNlho2XpLJZO2RpV4q/E/naJ84AAAAwJB4bPnzj0ch81hy87F6N2tPYgOyNskSRd+bo8B7//xtAxzRkH5LoUsmk1XWx7Gu9kkDAAAADJnlWxece/+CbX9Nji3omJqcTds4wmDkZ/Xn4eYZ+3M/XPjCAwN5PqOD9+1Skae6uVIm3bTpkkwma48sdSyOzxTev1P3LgAAADC0nli59ke3zdx7tGFEQVdP43k7ZFMbN1q7eca+3L8u2jrAAm/qncbNlSqr5cZLMplsxGaZ1Mv57EQbqwEAAABDb+vO6eMeWLzlt/U5tU2bjnUlZ9iO5Kw6m7en1Ml7SxR4H+zeMqACbxR2epsv2652+TXelslkIzdLf1nIpC7x6QIAAACcNk+vffaKiXN2f1EvdPbU5tVWxxjUjyM4q9xfXLdGgffhJZsH1sGbSffmMsmZnLGKx2yqvGQy2YjOYjTDt3H+mE8VAAAA4LRat3Pu6H979vkZN07ff7w+rqBxZEF9jdys2LlbLvAeLNw6c2/uJ0s3DrjAm2/aaKk8mzOxZDLZiMzi/uNR4F1XeL9zrE8VAAAA4LTb9affjJ288IXXGzZcq3a5Nt0eqVmyu7dY4H1k6cYfDeQ5LHXwZps3Yapezp0qyGSykZvF/a/E+QU+TQAAAIAz5qm1qzomztn1WZ/O1q6D/XTCjqAsWfiNFRvPHf/5sg0DKvAWZ/AWL9suF4IqRZ9k559MJhuhWfq92FTte4V37/dBAgAAAJw5G/7vuaMfW77+iZun7z/aZ3RBtbO3q8VYgxGQNXf3Fgu8v1i+fuAF3srmS8kiUPPGTDKZbIRkxWMm/fcY1dBRODTJhwgAAABw5nVvWXxOdK7uu35qT5/NyVp1xI6kLPk1t0eB95cr1k8eyHMXxZ6YwVvfhKm+8VJlyWSykZVlU5/FutsnBwAAAHBW2fb/zBh37/ztvdcnOltr3a3FY3WNyKxa4N1z/Fcr1g20wPte9bLt6pzO5oKQTCYbMdnnUfzVtgsAAACcnWY+v/y6SXN2fXR903za8u3k+UjJGou9t8/ac+zxlc8NsMCbei+X2ISptiFTNrkhk0wmG+5ZFHY/j/POQjY92qcFAAAAcNb6j9VrfpSevfvLjkQBtLFYWu18HQlZYxG4WOB9YuVz9w3k+Sp38KYqszorhaGGmZ0ymWw4Z+WRDamPYt3pEwIAAAA463V3d4+asnrNA51R7GzehKzaAdtqg7LhmFULwMU5vMXz4mN+YtXaARZ4yx28tUu6a8WiVKJIJJPJhmsWt9+JdZ1PBwAAAGDYmL9l6eh/X7nu4Sh4ftuwUVmtOHqwkNyQbfhm5Q7ejsr4hni8R6esWjPgAm9yY6b6/M6mjkCZTDasshjLcDzWi3H+vUI25YMBAAAAGF62/qF79GPLn388xjV81VHqgk0USZPdscM4ayj0Ti0XeJ9cvfregTxPpQJvJnlpd+NGTTKZbBhm2dRXcVwR951X+K9OHwgAAADA8PSHGNfw65VrH5w4e/fXyVm2rQqlwzUrbbBWGddQLPA+tXbVwAq8mRjRkKl3/1ULR9UNmmQy2fDJKuvDWJMLH3SO8SkAAAAAjAhLty667o45uz6cMLWnsfu1q/X5cMlKM3hrG7H1FFKz9hx5eu2quwfy3ERx6J367M7KPM9MqumSb5lMNgyyw3Hfjnxv+ny/9QEAAIARZ8b6FZf/cNHWP904ff/x6ysza69Pbl42tVIsHVZZT20Ob3GlZu858sxzAy3wFjdgqhSLMonLvJvnespksrMyi+OxGMnwWtx/Z9we57c9AAAAMGLN3LD0/EeXrV9984x9h6+vjDWoFlGr56WZt4nbwylLzdp95DfPrbxzIM9JuYM3Vd+YqaErsNIZKJPJzsIsfTzOP4ri7pOxLvAbHgAAAGgLG/fOHv0fq9bcfe/87R9f3zSyodYNW5lzOzyyRIF39u4jXeueHXCBN18sGiVme9bPS5s1yWSysyzLZ1IfxXu3K84v8lsdAAAAaDvFzdfmb1p64c+WbFwbG5N9U9+wrNgZWzl2Nc68PTuznlqht3g7CryHu9atOMkCb2W2Z6beMVheMpnsbMhKM3Yzqb/EfY/n/3b7+Cj2jvbbHAAAAGhrsfna2H9f8fwNP1y49fVbZuw7cn1l7EGtazbZOZu8fdZkPbW5vB2lGby7D097fvmkgTwHUTAqz+DNVDdqSie6BCuXhstksjOTZdJHIv8w1vq476Z4v57nNzcAAABAkx0908+ZsnrtI5MXvvDehKk9x0sF00QhtXrefDzTWbGoWzvGSs/e/e2M9cvTA3ns1QJvsoOwdmx1n0wmG8IsncuXZuumvopO3n1x+4FC1hgGAAAAgO9kx8GuMYu2LJ48eeG2V2J0w9GGebddyXm9PYWzIeuY2jiqoVjgnbVh2UkVeMsdhJU5n82bO8lkslPOKutYZN/E8fPI/h5f3xvF3b9GIffluG9XHGfE8bbC++lxfiMDAAAAnKRVO+aPf2LVuut+ufz5bVHo/eDWmfuOVQus5Zm4PX03OzuDWXUmbxR4v5m1YWnnQB5rscCbS84ALRWkUrWjbFCyz+P8z7FeioLeS8VjdcXznzhvmf0+1sHiiu8Tx1TpWD1vmWVK9++K71csGJaO1ZXv57x8O7U1/uz6livb//3xd62O77Wy1Yq89f2Z1LL4OxcMYM2LNSP+3LQ49rOasmzqmfi3PTmwlXqs/5V+OI4PxrG6Hoh1Xz478d76St8ZX9MZx5tiTYjza/PZzqvjMV8ety+L46VxvCT+rd+Lwu9F/8ikL4jn/bxCJj0+7h9TeOsev4ABAAAABtOyLQsv+fmyDZN/tnTjjrvn7vj7TdP3f3Pj9P3HJ1Tm3l4/9WDL4+nKOhKzeYsF3tkDLfBm02+XZ37WNnKqnVcuGZedahaX2nsnAQAAAMAZ9ofu7tErti6cMGXV2il3zNm1JDZn++ODize/9+PFmz9+YPGWz+P2V/cveOHb+xZs+/YH87cfOdG6N9Zdc3ceu3NO/+ue+TuO/rPvU133zd9++OHuTR8v3rRowkAeU7HAm8s0XEJeW+XCpexUMwVeAAAAADjL7OyZMWrtjjlju7csGjdnw5Jzpj6/4pz/tWbV+Cj+jn9i5XPjf7VifWn9cnnlWLldXY/F/T/p3jT+4e7N4x+K9XBpbaqs8vkvlm/o8+cav+fztfsef3bd+Pj7z1m5dd7ogTyOUgdvZU5orjJDtDxeoNqVKjvVTIEXAAAAABgSMaf07ZadqJWZsrJTzxR4AQAAAIAhUe7grY8XSBYrc4lipezkMwVeAAAAAGBIVEc05OvjBEqbhNU7UGWnminwAgAAAABDoqGDtzZDtrpZWFN3quykMgVeAAAAAGBIlAq8taJk5ZjsRpWdcqbACwAAAAAMieIma7lMq83C0rUxA7JTzRR4AQAAAIAhECME3koUIhuLlA3jBmQnmynwAgAAAABDIoqSb+WSowaaOlBlg5Ap8AIAAAAAQyGKj29Vi5K56qiBTOOGYbJTy+J4IO4bV1xRCB5XPU/ejq8ZG98jVmpsvnheWbnKKmbxvRtvJ87ztfPin++Mry2vKDSXVi6bOC/dX/z6xr8r+XfnSl+XHvuP3vSYXGbimFzvxPKxep68nYmv6U2VV/E81j8S57Usmx5TOPQdViYVx+LqLK185Txfuy9V/JrR8bWj499aOpbXJG9oAAAAANpLFPLeTI4ZaN2NKjuVLIqqxyM/WlrZ8jGfqR9jHYmv+/qfrfj6L+L4WXFFsfez6nn8+fp5NvVprL/H+ih+th8ljw0rk/4g7s8WV/y50soljqUsk+6N9Xapy/vE681Yr8W/6bXGY9N92fSf4/u//E9XJvXH+De+eMKVSf0+jsXC+YH6MX2NdzQAAAAAbSUKb2+WC5SpardprWBZ60aVyYZBFuf3ekcDAAAA0FaiYPZmLrkhWCbVuHGYTDZMsuhKvs87GgAAAIC2Ur68PtU4bqC6El2SMtlZn2VSk72jAQAAAGgrcWn7X6udkclZsqXL4ROXwMtkZ3sWs3gf8I4GAAAAoK2UCrzVQlmicFZepa5ImWxYZHGuwAsAAABAe4nCWFMHb2Ljqhb3yWRnaxYdvA96RwMAAADQVqIL8o3GS9+rs00T98lkwyCLTdZ+6h0NAAAAQFuJ7sc3ksWyfPXS97gUvnoukw2LLKvACwAAAECbqXXwZusdkvV5p33vk8nO1iyKvo94RwMAAADQVqI49nq+ViBLt5x3KpMNiyyTetQ7GgAAAIC2UivwJmecZpsvi5fJhkGWSf3KOxoAAACAthIFs9dqG1dlU02XvCc2tZLJzvIszn/lHQ0AAABAW4mux9fyfWaZVjaxyqYKMtlwyaLQ+7h3NAAAAABtJTofX4vZpZUCWfmYT842lcmGS5ZJT/GOBgAAAKCtFAu8jUWzVJ9L4GWy4ZDFa1mBFwAAAID2EgWyVxsve0/MNc00XxIvk529Wdx+0jsaAAAAgLYSRbFXk7NM85XL3ev3yWTDI4vX8lPe0QAAAAC0lSiWvZpPdERWuyJbnctkZ3n2jHc0AAAAAG0limJ/yWUaOyQbuyJlsuGRKfACAAAA0HZinulfSgWzTLlYVuqKrBxz1WKaTDY8si7vaAAAAADaSrnAWy6alTewSlUKZ4klkw2HLJOe4R0NAAAAQFuJzsc/5yqXupeKZ5XOyPJ5uZgma98sCqfH4vzjOL4T69X4ulfi+OdYf43C6gexvjl7HkNqlnc0AAAAAG0lCmZ/LndGVuaY1o7lopms/bI4Ho/RB5/F6IM9cf5AZFcVDqUvyL8/cXTxNVOIY/5Qenwhk7ok8lvia6fF17wV50fO7GNQ4AUAAACgzURRrLHAW+zabNrUStZW2Tex5kXR9pKBvI7y794/Ov7MvflyR/jxM/IYsqk53tEAAAAAtJUoir1Svsw9UUBLdEjK2iVLH4uO3d9H8fTy/Pup0SfzWsq/+y+j8tmJ58T3/Wl8n0/yTd22Q/4YsmkFXgAAAADaSxTFXil2RCYLaNWVryzZyM7iNXAk1oJ8ZtJ5g/GaitENo+N7Xxt/51vx/XOn7/Ep8AIAAADQZoqbZpWKfKUiWb0jstYhKRvhWeponM/IfXDX2MF+bUXR9bLiZmyn6/FFB/I872gAAAAA2koUxV5OXvqer25clWmaeyobeVkmfTSyRUP6+urtvDT+3t7T8/gUeAEAAABoM3GJe6nAm8+kmwpo5Q5J2QjOMunfxs//3KF8fRUOpWPztfSE+Hu+HfLHp4MXAAAAgHZTLfBWi2W1rsiGc9kIzD6OddXpe52lV8fffXwoH1/8HQu8owEAAABoK1EYe7lyeXtjsazFko2cLEYczCj8z6TRp+t1VsikvxcF2I+G8vHFUuAFAAAAoL1EUexP+dpGVZVj5XbyXDaSstRX+fc6x5/O11nh3fuK3eKzqvNyh+LxKfACAAAA0Hai6PanWgdkJlUumLXqjpSNiKxSJN18hl5r18Tf/9lQPb64f5F3NAAAAABtJQpmfzrBJe/WCFtR3D0c674z8VorZCaeE6+3V4bs8WUUeAEAAABoM1EYe6ne2dkwo7U871Q2srJM+pPiPNwz9XqLf9e8oXt8qSXe0QAAAAC0lSiKvZSYYVrZyKqh41M2grJY7xT+zw9Hn7nXW/reoXp8UeRV4AUAAACgvcTs0peaNuCqd0j22RBLNgKyl87w6+3qIXt82bQCLwAAAADtJQpjf6x3RFYKZtlUi25J2UjIYv32DL/eLh6yx5dJL/OOBgAAAKCtFAu80VVZmWma7nOUjbjsd2f29dZ5yVA9PjN4AQAAAGg7URT7Yy6bvNw91adDUjZysji+foZfb9cN1eOLtcg7GgAAAIC2Eh28LyZnmrbYlEs2krJM+sNC9o5xZ+71lnpwqB5fnC/wjgYAAACgrUTBb2u+b5dnUwFNNlKyWF/EuvZMvNYKf3io+HpbN2SPL5ue4x0NAAAAQFuJ4tjDsY7kq12Q1Q7JTGIDK9mIyeJ4LNYTZ+S11jvxgui2/etQPb5Ys7yjAQAAAGgrud70pVF0+zSfrXZBpspzTbPJWaeykZWlXym8c//pf61l07fEv+GbIXt8mdQ072gAAAAA2kr+9w9GF2/6peps0+Sx1X2y4Z/FOp7vTV9+Ol9nhUJ3bLCW3jW0jy/1pHc0AAAAAG0nLnH/aRTJcrWZprX5pqnSSs49lY2ULL0nirzjTuNr7Kb4t3w5lI8v7n/MuxkAAACAthPF3ctifdS4mVVDZ2RBNrKyfCb1bRRd7y5EB/dQy/emxsbf+Ur83bmhfHzxeG7xbgYAAACg7RR67xgTxbGt5Y2qqsWzVKF6u1pEk42wLJt+K9YlQ/nayr/fGa+t1JTSzNyhfHzZ2Cgwm7rIuxkAAACAthQF3muiUHa01A1ZWeXOyMrtaqekbARlpU7elwu9k84ditdU4d1/Kb6uHi52C5+Gx/dmrPHeyQAAAAC0pXx24rgolP2+1B1Zn9NaOm/q+pSNoCwKsMfj/LexBrX7tXDo5tHxPR+J19Rnp+Hx5eLvWVbo7RztnQwAAABAWyp88FAUeVPpWN+WuiOz5VXeyKpeUJONyCwXhdI/RaH0qsL/pE65SBrf95xYT8X66rQ8hkyMZ8ik0t7FAAAAALS1wh8eKl5S/7tkh2S9U7JaVJON1CyKpZ/G8cn8W/eMOdnXUBRar47veTC+V+50PYbo6u0t/O2Osd7BAAAAALS9KPBeG+vTPhtbVS6Tz1c2uZKNvCxXLqIej695Owq1v/quG7AVDkXHbiZ1Q/y5bVHY/brSEXxaHkOs48VuYe9cAAAAAAiFzMTRUayblS8V+lKJQlp1k6t0YpMr2YjNsqmjUVD9MIqrB+L2o1FUvS7yy+L+i+P+y+Pri5vy3RfnK+LPvxFf8+WZ+HfGfR/E8TLvXAAAAACoiA3XLohC2uuNl+/XOjxbXNovG+lZFHiPRrG3OMLhg7j9eayjZ8O/Mwq8s4qjRQAAAACAhCicXRGdkl/XCnwtim4y2ZnMYvXGusi7FQAAAACa5PPdxQ2zHo/1bb7FhleWdYbXsfgPiHsL2YmjvVsBAAAAoIV878SxUUhbF4W047lMcoOrVGlVN7uSyU5rVtpYLb218O79irsAAAAAcCL/yE48L4pqB2uXzGfqXZSlglvycnqZ7HRk2dQrhUPp87w7AQAAAOA7yGU6z48uypdjLm8uX+qqLHdYls6rG1+VOi1lsiHOsqnX43ipdyUAAAAAfEf5d++PebwTvxfFtj9XLo/vuwlWJtVnTqpMNnhZ6fh+/CfDVYV3/8WbEgAAAAAGKgpsF0eB7eVcsZO34XL6VLUAV1ky2WBmpTm8H8ftawv/fbc3IgAAAACcrFxv+twowm2rz0StHDP1LkyZbFCzTLo3xjRc490HAAAAAIOgkEmdE8W4JbG+KW+AVem8LM1OLRfocpUZqjLZKWXZ9JvxOrum8O4kbzwAAAAAGCz57KSx0VX5qyi+fZKcm1otzuVazFSVyb57lsrF7Tfi9qWFTzq94QAAAABgKESR9+p8qRBXnMubLndhZtINc1RztfmqMtk/z8ob+aX2FbKpC73DAAAAAGAIxbiGUfn3bx8f3ZYL4pL6L2qzUzMNBbtEYU8m6z+LQu9XcXw635s6x7sLAAAAAE6TQmbimCjS3RLFur/EOlbtzmzo1mzq3JTJcvV1LFeet9uZy941xjsKAAAAAM6AQm9nbMCW7opC3edRsMvVCnqlTbOqq7qZlkxWPE99HWteZEYyAAAAAMDZILp4L4yC3bLKJff14l5tY636UdamWTb1bWnW7qHUZfl8tzcNAAAAAJxN8ocmjYnOzauiuLc1CnqfJmeuNhwzqYKsTbLypmrfxvpdZLfERmrjvFMAAAAA4CxW+FtpPu91UeBbH8cvo+B7PHmJfq5hw63Gy/dlIybLxfk38Rp4KY6T8n+bpLALAAAAAMNNFPcujWLfvLg0/4Nqd2d1JmtyyUZUFjN20xvjZ39D/tAto70LAAAAAGAYK2TTo6Pgd24U/CZHofePMcbhi+Sl/JXL+Bu7QWXDKouf65E4fy3ufyqOF8V9Y/L/1enFDwAAAAAjSSF7+zlR4L0mioXTohD4TnFTtli5fDbV2A1a7Qgt3Sc7G7NYh+O+92Otj6+7Je4/v/Du/V7kAAAAANAOCofuPCd3KF0sDC6KAmI2CoXHYuUaO0PrG3jl+3SNyk5vVjoej6/5OIq7xY307o2f1wVeyQAAAADAqPyh1BVRQHw6CoovRvHws3ypszfd3DXaOB5ANuRZFHaLG+X9OX4uMUs53VF4Pz3GqxUAAAAA6CP/fnpUITNxXBR4L45i4qQoKi6L46uxPo51tKEAma2PD0gWKWWnlB3NFZ/rTPqNOK6P2/cWN8qLda7xCwAAAADAgBQK3TG3985xUWi8MtbdMRJgVhR//xTnn8QYga+jMHkkjrlykbIyRiBTHjVQul2dIStryIrd0XGM5y79dTx/xYLuS3HfnHh+784Vn+veieO9+gAAAACAIVHI3jUuCpNXRpFychynRYFyWxQmX4vjV/lEd2qpoNli/ECbZl9F9lYUcffFczar/Nylryz0dhq5AAAAAACcGVGgjLEO6TFRzByX702fWyxaRhGzOFrgmShqboxi5oux3oiC5odR9Pwq8uPlTtZEh2tDt+vwynLlkQtH4vzTeGy98dij0J36fay1cd+UOMaoi9Qlsc6N2+MK2dSY/Du3eOEAAAAAAGe/wnu3jc33ps4vzZLNpK6OAukNUQi9L45PRDF0Xty3ubixW9x+I1Y27vswX55D+2mcfx7F1C/ja76Jgurhyhzg47UN4DL1mbbVwmvt/hNl5ZEJxTEJx+N4rDguIf6Ow/F3fFMqQmfTX8T6rPLv+CiO78efezuOr0R+IL7nuvi3FTuXH4mVjvuviz9/RZxfHAXc8wrvdY4pvN7phw8AAAAAtI/CofTYwqHO8wvZ2OQtk748iqXXRPH1hiiepotdwVFIfbBYVI0i62Nx/nilSPx0rGfKM2xPuGaUvi6TfjJW8c8Wv8cj8b0fjts/igJudB2n0rFuivuvjX/DlbEuie7kC+N4joItAAAAAAAAAAAAAAAAAAAAAAAAAAAAAAAAAAAAAAAAAAAAAAAAAAAAAAAAAAAAAAAAAAAAAAAAAAAAAAAAAAAAAAAAAAAAAAAAAAAAAAAAAAAAAAAAAAAAAAAAAAAAAAAAAAAAAAAAAAAAAAAAAAAAAAAAAAAAAAAAAAAAAAAAAAAAAAAAAAAAAAAAAAAAAAAAAAAAAAAAAAAAAAAAAAAAAAAAAAAAAAAAAAAAAAAAAAAAAAAAAAAAAAAAAAAAAAAAAAAAAAAAAAAAAAAAAAAAAAAAAAAAAAAAAAAAAAAAAAAAAAAAAAAAAAAAAAAAAAAAAAAAAAAAAAAAAAAAAAAAAAAAAAAAAAAAAAAAAAAAAAAAAAAAAAAAAAAAAAAAAAAAAAAAAAAAAAAAAAAAAAAAAAAAAAAAAAAAAAAAAAAAAAAAAAAAAAAAAAAAAAAAAAAAAAAAAAAAAAAAAAAAAAAAAAAAAAAAAAAAAAAAAAAAAAAAAAAAAAAAAAAAAAAAAAAAAAAAAAAAAAAAAAAAAAAAAAAAAAAAAAAAAAAAAAAAAAAAAAAAAAAAAAAAAAAAAAAAAAAAAAAAAAAAAAAAAAAAAAAAAAAAAAAAAAAAAAAAAAAAAAAAAAAAAAAAAAAAAAAAAAAAAAAAAAAAAAAAAAAAAAAAAAAAAAAAAAAAAAAAAAAAAAAAAAAAAAAAAAAAAAAAAAAAAAAAAAAAAAAAAAAAAAAAAAAAAAAAAAAAAAAAAAAAAAAAAAAAAAAAAAAAAAAAAAAAAAAAAAAAAAAAAAAAAAAAAAAAAAAAAAAAAAAAAAAAAAAAAAAAAAAAAAAAAAAAAAAAAAAAAAAAAAAAAAAAAAAAAAAAAAAAAAAAAAAAAAAAAAAAAAAAAAAAAAAAAAAAAAAAAAAAAAAAAAAAAAAAAAAAAAAAAAAAAAAAAAAAAAAAAAAAAAAAAAAAAAAAAAAAAAAAAAAAAAAAAAAAAAAAAAAAAAAAAAAAAAAAAAAAAAAAAAAAAAAAAAAAAAAAAAAAAAAAAAAAAAAAAAAAAAAAAAAAAAAAAAAAAAAAAAAAAAAAAAAAAAAAAAAAAAAAAAAAAAAAAAAAAAAAAAAAAAAAAAAAAAAAAAAAAAAAAAAAAAAAAAAAAAAAAAAAAAAAAAAAAAAAAAAAAAAAAAAAAAAAAAAAAAAAAAAAAAAAAAAAAAAAAAAAAAAAAAAAAAAAAAAAAAAAAAAAAAAAAAAAAAAAAAAAAAAAAAAAAAAAAAAAAAAAAAAAAAAAAAAAAAAAAAAAAAAAAAAAAAAAAAAAAAAAAAAAAAAAAAAAAAAAAAAAAAAAAAAAAAAAAAAAAAAAAAAAAAAAAAAAAAAAAAAAAAAAAAAAAAAAAAAAAAAAAAAAAAAAAAAAAAAAAAAAAAAAAAAAAAAAAAAAAAAAAAAAAAAAAAAAAAAAAAAAAAAAAAAAAAAAAAAAAAAAAAAAAAAAAAAAAAAAAAAAAAAAAAAAAAAAAAAAAAAAAAAAAAAAAAAAAAAAAAAAAAAAAAAAAAAAAAAAAAAAAAAAAAAAAAAAAAAAAAAAAAAAAAAAAAAAAAAAAAAAAAAAAAAAAAAAAAAAAAAAAAAAAAAAAAAAAAAAAAAAAAAAAAAAAAAAAAAAAAAAAAAAAAAAAAAAAAAAAAAAAAAAAAAAAAAAAAAAAAAAAAAAAAAAAAAAwP/fHhwIAAAAAAjyt15ghAoAAAAAAAAAAAAAAAAAAAAAAAAAAAAAAAAAAAAAAAAAAAAAAAAAAAAAAAAAAAAAAAAAAAAAAAAAAAAAAAAAAAAAAAAAAAAAAAAAAAAAAAAAAAAAAAAAAAAAAAAAAAAAAAAAAAAAAAAAAAAAAAAAAAAAAAAAAAAAAAAAAAAAAAAAAAAAAAAAAAAAAAAAAAAAAAAAAAAAAAAAAAAAAAAAAAAAAAAAAAAAAAAAAAAAAAAAAAAAAAAAAAAAAAAAAAAAAAAAAAAAAAAAAAAAAAAAAAAAAAAAAABgBD6JOjUZEnFKAAAAAElFTkSuQmCC;clipPath=inset(30.19% 35.33% 22.64% 35.33%);" vertex="1" parent="gm-BCZkmppoRR4s2eMcR-4">
          <mxGeometry x="60" y="154.5" width="36.08" height="41" as="geometry" />
        </mxCell>
        <mxCell id="gm-BCZkmppoRR4s2eMcR-78" value="" style="aspect=fixed;sketch=0;html=1;dashed=0;whitespace=wrap;verticalLabelPosition=bottom;verticalAlign=top;fillColor=#2875E2;strokeColor=light-dark(#FFFFFF,#FFFFFF);points=[[0.005,0.63,0],[0.1,0.2,0],[0.9,0.2,0],[0.5,0,0],[0.995,0.63,0],[0.72,0.99,0],[0.5,1,0],[0.28,0.99,0]];shape=mxgraph.kubernetes.icon2;prIcon=pod" vertex="1" parent="gm-BCZkmppoRR4s2eMcR-4">
          <mxGeometry x="160" y="160" width="31.25" height="30" as="geometry" />
        </mxCell>
        <mxCell id="gm-BCZkmppoRR4s2eMcR-84" value="" style="aspect=fixed;sketch=0;html=1;dashed=0;whitespace=wrap;verticalLabelPosition=bottom;verticalAlign=top;fillColor=#2875E2;strokeColor=light-dark(#FFFFFF,#FFFFFF);points=[[0.005,0.63,0],[0.1,0.2,0],[0.9,0.2,0],[0.5,0,0],[0.995,0.63,0],[0.72,0.99,0],[0.5,1,0],[0.28,0.99,0]];shape=mxgraph.kubernetes.icon2;prIcon=pod" vertex="1" parent="gm-BCZkmppoRR4s2eMcR-4">
          <mxGeometry x="234.38" y="160" width="31.25" height="30" as="geometry" />
        </mxCell>
        <mxCell id="gm-BCZkmppoRR4s2eMcR-87" value="" style="aspect=fixed;sketch=0;html=1;dashed=0;whitespace=wrap;verticalLabelPosition=bottom;verticalAlign=top;fillColor=#2875E2;strokeColor=light-dark(#FFFFFF,#FFFFFF);points=[[0.005,0.63,0],[0.1,0.2,0],[0.9,0.2,0],[0.5,0,0],[0.995,0.63,0],[0.72,0.99,0],[0.5,1,0],[0.28,0.99,0]];shape=mxgraph.kubernetes.icon2;prIcon=pod" vertex="1" parent="gm-BCZkmppoRR4s2eMcR-4">
          <mxGeometry x="308.76" y="160" width="31.25" height="30" as="geometry" />
        </mxCell>
        <mxCell id="gm-BCZkmppoRR4s2eMcR-16" value="" style="container=1;collapsible=0;expand=0;recursiveResize=0;html=1;whiteSpace=wrap;strokeColor=#1192E8;fillColor=none;strokeWidth=1" vertex="1" parent="gm-BCZkmppoRR4s2eMcR-1">
          <mxGeometry x="560" y="40" width="190" height="250" as="geometry" />
        </mxCell>
        <mxCell id="gm-BCZkmppoRR4s2eMcR-17" value="" style="shape=rect;fillColor=none;aspect=fixed;resizable=0;labelPosition=right;verticalLabelPosition=middle;align=left;verticalAlign=middle;strokeColor=none;part=1;spacingLeft=5;fontSize=14;" vertex="1" parent="gm-BCZkmppoRR4s2eMcR-16">
          <mxGeometry width="48" height="48" relative="1" as="geometry" />
        </mxCell>
        <mxCell id="gm-BCZkmppoRR4s2eMcR-18" value="" style="fillColor=#1192E8;shape=mxgraph.ibm_cloud.ibm-cloud--subnets;strokeColor=none;dashed=0;outlineConnect=0;html=1;labelPosition=center;verticalLabelPosition=bottom;verticalAlign=top;part=1;movable=0;resizable=0;rotatable=0;" vertex="1" parent="gm-BCZkmppoRR4s2eMcR-17">
          <mxGeometry width="24" height="24" relative="1" as="geometry">
            <mxPoint x="12" y="12" as="offset" />
          </mxGeometry>
        </mxCell>
        <mxCell id="gm-BCZkmppoRR4s2eMcR-19" value="" style="shape=rect;fillColor=#1192E8;aspect=fixed;resizable=0;labelPosition=right;verticalLabelPosition=middle;align=left;verticalAlign=middle;strokeColor=none;part=1;spacingLeft=5;fontSize=14;" vertex="1" parent="gm-BCZkmppoRR4s2eMcR-16">
          <mxGeometry width="4" height="48" relative="1" as="geometry" />
        </mxCell>
        <mxCell id="gm-BCZkmppoRR4s2eMcR-21" value="Cloud&#xa;NAT" style="sketch=0;html=1;verticalAlign=top;labelPosition=center;verticalLabelPosition=bottom;align=center;spacingTop=-6;fontSize=11;fontStyle=1;fontColor=#999999;shape=image;aspect=fixed;imageAspect=0;image=data:image/svg+xml,PHN2ZyB4bWxuczppbmtzY2FwZT0iaHR0cDovL3d3dy5pbmtzY2FwZS5vcmcvbmFtZXNwYWNlcy9pbmtzY2FwZSIgeG1sbnM6c29kaXBvZGk9Imh0dHA6Ly9zb2RpcG9kaS5zb3VyY2Vmb3JnZS5uZXQvRFREL3NvZGlwb2RpLTAuZHRkIiB4bWxucz0iaHR0cDovL3d3dy53My5vcmcvMjAwMC9zdmciIHhtbG5zOnN2Zz0iaHR0cDovL3d3dy53My5vcmcvMjAwMC9zdmciIHdpZHRoPSI5OS45OTczMDIyMDQ4OTI5NiIgaGVpZ2h0PSI5Ny44ODA4NTM5MDQyOTYzMyIgdmlld0JveD0iLTAuMDQ1Nzc2MzY3MTg3NSAxLjA4Nzc4ODU4MTg0ODE0NDUgOTkuOTk3Mjk5MTk0MzM1OTQgOTcuODgwODQ0MTE2MjEwOTQiIHZlcnNpb249IjEuMSIgaWQ9InN2ZzUiIGlua3NjYXBlOnZlcnNpb249IjEuMSAoYzY4ZTIyYzM4NywgMjAyMS0wNS0yMykiIHNvZGlwb2RpOmRvY25hbWU9ImNsb3VkX25hdC5zdmciPiYjeGE7ICA8c29kaXBvZGk6bmFtZWR2aWV3IGlkPSJuYW1lZHZpZXc3IiBwYWdlY29sb3I9IiNmZmZmZmYiIGJvcmRlcmNvbG9yPSIjNjY2NjY2IiBib3JkZXJvcGFjaXR5PSIxLjAiIGlua3NjYXBlOnBhZ2VzaGFkb3c9IjIiIGlua3NjYXBlOnBhZ2VvcGFjaXR5PSIwLjAiIGlua3NjYXBlOnBhZ2VjaGVja2VyYm9hcmQ9IjAiIGlua3NjYXBlOmRvY3VtZW50LXVuaXRzPSJtbSIgc2hvd2dyaWQ9ImZhbHNlIiBpbmtzY2FwZTp6b29tPSIwLjU3OTMzNzQ0IiBpbmtzY2FwZTpjeD0iLTQyLjI4OTY4OSIgaW5rc2NhcGU6Y3k9IjI1NC42MDExOSIgaW5rc2NhcGU6d2luZG93LXdpZHRoPSIxOTIwIiBpbmtzY2FwZTp3aW5kb3ctaGVpZ2h0PSIxMDE3IiBpbmtzY2FwZTp3aW5kb3cteD0iLTgiIGlua3NjYXBlOndpbmRvdy15PSItOCIgaW5rc2NhcGU6d2luZG93LW1heGltaXplZD0iMSIgaW5rc2NhcGU6Y3VycmVudC1sYXllcj0ibGF5ZXIxIiBmaXQtbWFyZ2luLXRvcD0iMCIgZml0LW1hcmdpbi1sZWZ0PSIwIiBmaXQtbWFyZ2luLXJpZ2h0PSIwIiBmaXQtbWFyZ2luLWJvdHRvbT0iMCIvPiYjeGE7ICA8ZGVmcyBpZD0iZGVmczIiLz4mI3hhOyAgPGcgaW5rc2NhcGU6bGFiZWw9IkxheWVyIDEiIGlua3NjYXBlOmdyb3VwbW9kZT0ibGF5ZXIiIGlkPSJsYXllcjEiIHRyYW5zZm9ybT0idHJhbnNsYXRlKDI1OC42MTk3NSwxNi42Njc3MTUpIj4mI3hhOyAgICA8cGF0aCBpZD0icGF0aDE3MzYyIiBzdHlsZT0ib3BhY2l0eToxO2ZpbGw6IzQyODVmNDtmaWxsLW9wYWNpdHk6MTtzdHJva2U6bm9uZTtzdHJva2Utd2lkdGg6MC45OTk5OTlweDtzdHJva2UtbGluZWNhcDpidXR0O3N0cm9rZS1saW5lam9pbjptaXRlcjtzdHJva2Utb3BhY2l0eToxIiBkPSJNIDE0MS40MTc5Nyw0LjExMTMyODEgMTI0LjQwMjM0LDI0LjM3NSBjIDU3Ljg5NTM3LDQ4LjYxNjQyNiA4My40MTQwNyw5Ni4wNjQ2NyA4My40MTQwNywxNjMuOTQzMzYgMCw3Mi4zMTIyOCAtMzYuMTA3MzEsMTI0LjgyOTc3IC04Mi4wMTk1MywxNjYuMDQ4ODMgbCAxNy42Nzk2OCwxOS42ODc1IGMgNDkuMjAyOTksLTQ0LjE3MzQyIDkwLjc5Njg4LC0xMDQuNDk4MzcgOTAuNzk2ODgsLTE4NS43MzYzMyAwLC03NC44ODE1MiAtMzEuMTU5NDEsLTEzMi4zOTkwMjIgLTkyLjg1NTQ3LC0xODQuMjA3MDMxOSB6IE0gOTYuNTU2NjQxLDc1Ljg4NDc2NiBWIDEwMi4zNDE4IEggMTY2LjQ4MzA1IEMgMTYyLjM5Mjc0LDk0LjU1NDQyIDE1OC40NTE0Myw4Ni44NDE1NDIgMTQ4LjAyMjMzLDc1Ljg4NDc2NiBaIE0gMzE3Ljc3OTMsMjAyLjMwNjY0IHYgMzIuMjkyOTcgbCA1OS45OTAyMywtNDUuNTE3NTggLTU5Ljk5MDIzLC00NS41MTc1OCB2IDMyLjI4NTE2IGggLTY0LjQ3NDYxIHYgMjYuNDU3MDMgeiBNIDUwLjA1ODU5NCwxNzUuODQ5NjEgdiAyNi40NTcwMyBIIDE4Ny4yODEyNSBjIDEuMTU3NDUsLTguMDQ3MzcgMS4yODIzMSwtMTYuNzgzMTUgMCwtMjYuNDU3MDMgeiBtIDQ3LjAzNzEwOSwxMDAuMDQ2ODcgdiAyNi40NTcwNCBoIDUwLjY4MjY3NyBjIDguMDE2NTcsLTguMDE0NjYgMTQuNDYxNjksLTE2LjgxNTA0IDE5LjIyMzU3LC0yNi40NTcwNCB6IiB0cmFuc2Zvcm09Im1hdHJpeCgwLjI2NDU4MzMzLDAsMCwwLjI2NDU4MzMzLC0yNTguNjE5NzUsLTE2LjY2NzcxNSkiIHNvZGlwb2RpOm5vZGV0eXBlcz0iY2NzY2NzY2NjY2NjY2NjY2NjY2NjY2NjY2NjY2NjIi8+JiN4YTsgICAgPHBhdGggaWQ9InBhdGgxNjI3MS03IiBzdHlsZT0iY29sb3I6IzAwMDAwMDtvcGFjaXR5OjE7ZmlsbDojNjY5ZGY2O3N0cm9rZS1saW5lam9pbjpyb3VuZDstaW5rc2NhcGUtc3Ryb2tlOm5vbmU7ZmlsbC1vcGFjaXR5OjEiIGQ9Im0gLTIzNy45NTQwOCw1MS45MDU2ODYgYyAtNC4zNDYzLDEwZS03IC03LjkyMzgyLDMuNTc3NTIxIC03LjkyMzgyLDcuOTIzODI4IDAsNC4zNDYzMDcgMy41Nzc1Miw3LjkyMzgyOCA3LjkyMzgyLDcuOTIzODI4IDQuMzQ2MzEsMCA3LjkyMzgzLC0zLjU3NzUyMSA3LjkyMzgzLC03LjkyMzgyOCAwLC00LjM0NjMwNyAtMy41Nzc1MiwtNy45MjM4MjcgLTcuOTIzODMsLTcuOTIzODI4IHogbSAwLDUgYyAxLjY0NDExLDAgMi45MjM4MywxLjI3OTcxOCAyLjkyMzgzLDIuOTIzODI4IDAsMS42NDQxMSAtMS4yNzk3MiwyLjkyMzgyOCAtMi45MjM4MywyLjkyMzgyOCAtMS42NDQxMSwwIC0yLjkyMzgyLC0xLjI3OTcxOCAtMi45MjM4MiwtMi45MjM4MjggMCwtMS42NDQxMSAxLjI3OTcxLC0yLjkyMzgyOCAyLjkyMzgyLC0yLjkyMzgyOCB6IG0gLTEyLjc4NzYxLC0zMS40ODg1OTMgYyAtNC4zNDYzLDEwZS03IC03LjkyMzgyLDMuNTc3NTIxIC03LjkyMzgyLDcuOTIzODI4IDAsNC4zNDYzMDcgMy41Nzc1Miw3LjkyMzgyOCA3LjkyMzgyLDcuOTIzODI4IDQuMzQ2MzEsMCA3LjkyMzgzLC0zLjU3NzUyMSA3LjkyMzgzLC03LjkyMzgyOCAwLC00LjM0NjMwNyAtMy41Nzc1MiwtNy45MjM4MjcgLTcuOTIzODMsLTcuOTIzODI4IHogbSAwLDUgYyAxLjY0NDExLDAgMi45MjM4MywxLjI3OTcxOCAyLjkyMzgzLDIuOTIzODI4IDAsMS42NDQxMSAtMS4yNzk3MiwyLjkyMzgyOCAtMi45MjM4MywyLjkyMzgyOCAtMS42NDQxMSwwIC0yLjkyMzgyLC0xLjI3OTcxOCAtMi45MjM4MiwtMi45MjM4MjggMCwtMS42NDQxMSAxLjI3OTcxLC0yLjkyMzgyOCAyLjkyMzgyLC0yLjkyMzgyOCB6IG0gMTIuNjE2NTIsLTMxLjQzMTQ5MjkgYyAtNC4zNDYzLDZlLTcgLTcuOTIzODIsMy41Nzc1MjA4IC03LjkyMzgyLDcuOTIzODI4MSAwLDQuMzQ2MzA2OCAzLjU3NzUyLDcuOTIzODI3OCA3LjkyMzgyLDcuOTIzODI3OCA0LjM0NjMxLDAgNy45MjM4MywtMy41Nzc1MjEgNy45MjM4MywtNy45MjM4Mjc4IDAsLTQuMzQ2MzA3MyAtMy41Nzc1MiwtNy45MjM4Mjc1IC03LjkyMzgzLC03LjkyMzgyODEgeiBtIDAsNSBjIDEuNjQ0MTEsMmUtNyAyLjkyMzgzLDEuMjc5NzE4NCAyLjkyMzgzLDIuOTIzODI4MSAwLDEuNjQ0MTA5NiAtMS4yNzk3MiwyLjkyMzgyNzkgLTIuOTIzODMsMi45MjM4Mjc5IC0xLjY0NDExLDAgLTIuOTIzODIsLTEuMjc5NzE4MyAtMi45MjM4MiwtMi45MjM4Mjc5IDAsLTEuNjQ0MTA5NyAxLjI3OTcxLC0yLjkyMzgyNzkgMi45MjM4MiwtMi45MjM4MjgxIHoiLz4mI3hhOyAgPC9nPiYjeGE7PC9zdmc+;" vertex="1" parent="gm-BCZkmppoRR4s2eMcR-16">
          <mxGeometry x="65" y="40" width="60" height="60" as="geometry" />
        </mxCell>
        <mxCell id="gm-BCZkmppoRR4s2eMcR-24" value="" style="strokeColor=#dddddd;shadow=0;strokeWidth=1;rounded=1;absoluteArcSize=1;arcSize=2;" vertex="1" parent="gm-BCZkmppoRR4s2eMcR-16">
          <mxGeometry x="15" y="164" width="160" height="60" as="geometry" />
        </mxCell>
        <mxCell id="gm-BCZkmppoRR4s2eMcR-25" value="&lt;font color=&quot;#000000&quot;&gt;Management&lt;/font&gt;&lt;br&gt;Compute Engine" style="editableCssRules=.*;html=1;fontColor=#999999;shape=image;verticalLabelPosition=middle;verticalAlign=middle;labelPosition=right;align=left;spacingLeft=20;part=1;points=[];imageAspect=0;image=data:image/svg+xml,PHN2ZyB4bWxucz0iaHR0cDovL3d3dy53My5vcmcvMjAwMC9zdmciIHhtbG5zOnY9Imh0dHBzOi8vdmVjdGEuaW8vbmFubyIgd2lkdGg9IjIwIiBoZWlnaHQ9IjIwIiB2aWV3Qm94PSIwIDAgMjAgMjAiPiYjeGE7CTxzdHlsZSB0eXBlPSJ0ZXh0L2NzcyI+JiN4YTsJLnN0MHtmaWxsOiM0Mjg1ZjQ7fSYjeGE7CS5zdDF7ZmlsbDojNjY5ZGY2O30mI3hhOwkuc3Qye2ZpbGw6I2FlY2JmYTt9JiN4YTsJPC9zdHlsZT4mI3hhOwk8cGF0aCBjbGFzcz0ic3QyIiBkPSJNNyA3aDZ2Nkg3eiIvPiYjeGE7CTxwYXRoIGNsYXNzPSJzdDEiIGQ9Ik05IDBoMnY0SDl6TTUgMGgydjRINXptOCAwaDJ2NGgtMnoiLz4mI3hhOwk8cGF0aCBjbGFzcz0ic3QwIiBkPSJNOSAxNmgydjRIOXptLTQgMGgydjRINXptOCAwaDJ2NGgtMnptMy01VjloNHYyem0wIDR2LTJoNHYyem0wLThWNWg0djJ6Ii8+JiN4YTsJPHBhdGggY2xhc3M9InN0MSIgZD0iTTAgMTFWOWg0djJ6bTAgNHYtMmg0djJ6bTAtOFY1aDR2MnoiLz4mI3hhOwk8cGF0aCBjbGFzcz0ic3QyIiBkPSJNMyAzdjE0aDE0VjN6bTEyIDEySDVWNWgxMHoiLz4mI3hhOwk8cGF0aCBjbGFzcz0ic3QxIiBkPSJNMTAgMTBsLTMgM2g2eiIvPiYjeGE7CTxwYXRoIGNsYXNzPSJzdDAiIGQ9Ik0xMyA3bC0zIDMgMyAzeiIvPiYjeGE7PC9zdmc+;" vertex="1" parent="gm-BCZkmppoRR4s2eMcR-24">
          <mxGeometry width="30" height="30" relative="1" as="geometry">
            <mxPoint x="15" y="15" as="offset" />
          </mxGeometry>
        </mxCell>
        <mxCell id="gm-BCZkmppoRR4s2eMcR-27" style="edgeStyle=orthogonalEdgeStyle;rounded=0;orthogonalLoop=1;jettySize=auto;html=1;exitX=0.5;exitY=0;exitDx=0;exitDy=0;entryX=0.502;entryY=1.5;entryDx=0;entryDy=0;entryPerimeter=0;" edge="1" parent="gm-BCZkmppoRR4s2eMcR-16" source="gm-BCZkmppoRR4s2eMcR-24" target="gm-BCZkmppoRR4s2eMcR-21">
          <mxGeometry relative="1" as="geometry" />
        </mxCell>
        <mxCell id="gm-BCZkmppoRR4s2eMcR-37" value="" style="strokeColor=#dddddd;shadow=0;strokeWidth=1;rounded=1;absoluteArcSize=1;arcSize=2;" vertex="1" parent="gm-BCZkmppoRR4s2eMcR-1">
          <mxGeometry x="560" y="300" width="190" height="60" as="geometry" />
        </mxCell>
        <mxCell id="gm-BCZkmppoRR4s2eMcR-38" value="Private Artifact&lt;br&gt;Registry" style="editableCssRules=.*;html=1;fontColor=#999999;shape=image;verticalLabelPosition=middle;verticalAlign=middle;labelPosition=right;align=left;spacingLeft=20;part=1;points=[];imageAspect=0;image=data:image/svg+xml,PHN2ZyB4bWxucz0iaHR0cDovL3d3dy53My5vcmcvMjAwMC9zdmciIHhtbG5zOnY9Imh0dHBzOi8vdmVjdGEuaW8vbmFubyIgd2lkdGg9IjIxLjk5OTAwMDU0OTMxNjQwNiIgaGVpZ2h0PSIyMC4zOTM5OTkwOTk3MzE0NDUiIHZpZXdCb3g9IjAgMCAyMS45OTkwMDA1NDkzMTY0MDYgMjAuMzkzOTk5MDk5NzMxNDQ1Ij4mI3hhOwk8c3R5bGUgdHlwZT0idGV4dC9jc3MiPiYjeGE7CS5zdDB7ZmlsbDojNDI4NWY0O2ZpbGwtcnVsZTpldmVub2RkfSYjeGE7CTwvc3R5bGU+JiN4YTsJPHBhdGggY2xhc3M9InN0MCIgZD0iTTUgMHYyLjQ1OEwxLjk5OSA0LjE5N3YxMi4wMUw1IDE3LjkzOHYyLjQ1NmwtNS0yLjg4N1YyLjg4NnptMTIgMGw0Ljk5OSAyLjg4NnYxNC42MjFMMTcgMjAuMzk0di0yLjQ1NmwzLTEuNzMxVjQuMTk3bC0zLTEuNzM5em0tNi4wMTYgNi42NzNsMi45NDctMS42NDYtMi45NDctMS42NDYtMi45NDcgMS42NDZ6bTMuMjY4LTEuMDk2bC0yLjg3MSAxLjY3OHYzLjI4N2wyLjg3MS0xLjY3NnpNNy43NzMgOC44NjZsMi44NzEgMS42NzRWNy4yNTZMNy43NzMgNS41Nzd6bS0uMjEyIDMuODc4bDIuODItMS42NDYtMi44Mi0xLjY0Ni0yLjgyIDEuNjQ2em0zLjEzMi0xLjA5OGwtMi44NzEgMS42Nzh2My4yODdsMi44NzEtMS42NzZ6bS02LjI2NCAzLjI4OUw3LjMgMTYuNjA5di0zLjI4NWwtMi44NzEtMS42Nzl6bTEwLjAyOS0yLjE5MWwyLjgyLTEuNjQ2LTIuODItMS42NDYtMi44MiAxLjY0NnptMy4xMzItMS4wOThsLTIuODcxIDEuNjc4djMuMjg3bDIuODcxLTEuNjc2em0tNi4yNjQgMy4yODlsMi44NzEgMS42NzR2LTMuMjg1bC0yLjg3MS0xLjY3OXoiLz4mI3hhOzwvc3ZnPg==;" vertex="1" parent="gm-BCZkmppoRR4s2eMcR-37">
          <mxGeometry width="30" height="27" relative="1" as="geometry">
            <mxPoint x="15" y="16" as="offset" />
          </mxGeometry>
        </mxCell>
        <mxCell id="gm-BCZkmppoRR4s2eMcR-55" style="edgeStyle=orthogonalEdgeStyle;rounded=0;orthogonalLoop=1;jettySize=auto;html=1;exitX=0;exitY=0.5;exitDx=0;exitDy=0;entryX=1;entryY=0.576;entryDx=0;entryDy=0;entryPerimeter=0;" edge="1" parent="gm-BCZkmppoRR4s2eMcR-1" source="gm-BCZkmppoRR4s2eMcR-24" target="gm-BCZkmppoRR4s2eMcR-39">
          <mxGeometry relative="1" as="geometry" />
        </mxCell>
        <mxCell id="gm-BCZkmppoRR4s2eMcR-57" style="edgeStyle=orthogonalEdgeStyle;rounded=0;orthogonalLoop=1;jettySize=auto;html=1;exitX=0;exitY=0.5;exitDx=0;exitDy=0;entryX=1;entryY=0.96;entryDx=0;entryDy=0;entryPerimeter=0;" edge="1" parent="gm-BCZkmppoRR4s2eMcR-1" source="gm-BCZkmppoRR4s2eMcR-37" target="gm-BCZkmppoRR4s2eMcR-39">
          <mxGeometry relative="1" as="geometry" />
        </mxCell>
        <mxCell id="gm-BCZkmppoRR4s2eMcR-59" style="edgeStyle=orthogonalEdgeStyle;rounded=0;orthogonalLoop=1;jettySize=auto;html=1;" edge="1" parent="1" source="gm-BCZkmppoRR4s2eMcR-32" target="gm-BCZkmppoRR4s2eMcR-16">
          <mxGeometry relative="1" as="geometry">
            <Array as="points">
              <mxPoint x="835" y="130" />
              <mxPoint x="835" y="130" />
            </Array>
          </mxGeometry>
        </mxCell>
        <mxCell id="gm-BCZkmppoRR4s2eMcR-32" value="" style="strokeColor=#dddddd;shadow=0;strokeWidth=1;rounded=1;absoluteArcSize=1;arcSize=2;" vertex="1" parent="1">
          <mxGeometry x="760" y="20" width="150" height="60" as="geometry" />
        </mxCell>
        <mxCell id="gm-BCZkmppoRR4s2eMcR-33" value="Identity-Aware&#xa;Proxy" style="editableCssRules=.*;html=1;fontColor=#999999;shape=image;verticalLabelPosition=middle;verticalAlign=middle;labelPosition=right;align=left;spacingLeft=20;part=1;points=[];imageAspect=0;image=data:image/svg+xml,PHN2ZyB4bWxucz0iaHR0cDovL3d3dy53My5vcmcvMjAwMC9zdmciIHhtbG5zOnY9Imh0dHBzOi8vdmVjdGEuaW8vbmFubyIgd2lkdGg9IjE5Ljk5IiBoZWlnaHQ9IjEwLjQxIiB2aWV3Qm94PSIwIDAgMTkuOTkgMTAuNDEiPiYjeGE7CTxwYXRoIGQ9Ik05Ljg0LjIxYTUuMSA1LjEgMCAxIDAgNS4xIDUuMWgwYTUuMSA1LjEgMCAwIDAtNS4xLTUuMXptMCA5LjA4YTQgNCAwIDEgMSA0LTRoMGE0IDQgMCAwIDEtNCA0LjAxeiIgZmlsbD0iIzQyODVmNCIvPiYjeGE7CTxwYXRoIGQ9Ik0xMS43NiA1LjkyYTIuMDkgMi4wOSAwIDAgMC0uMjgtLjIyIDMuMTEgMy4xMSAwIDAgMC0yLjYxLS4yOCAyLjMxIDIuMzEgMCAwIDAtLjg5LjQ3Ljg2Ljg2IDAgMCAwLS4zNy42NXYxaDQuNDd2LS44MmExIDEgMCAwIDAtLjMyLS44ek05Ljg0IDQuNzRhMS4xNiAxLjE2IDAgMSAwLTEuMTctMS4xNWgwYTEuMTcgMS4xNyAwIDAgMCAxLjE3IDEuMTV6IiBmaWxsPSIjNjY5ZGY2Ii8+JiN4YTsJPHBhdGggZD0iTTE2LjI5IDUuNmgyLjIxbC0uNzcuNzhoMS4wNGwxLjIyLTEuMjMtMS4yMi0xLjIyaC0xLjA0bC43Ny43N2gtMi4yMXoiIGZpbGw9IiNhZWNiZmEiLz4mI3hhOwk8cGF0aCBkPSJNMTcuODggMS43M1YwaC0xLjczbC0uNzMuNzRoMS4wOWwtLjk4Ljk3LjY0LjY0Ljk4LS45N3YxLjA5em0tMi40NiA3Ljk1bC43My43M2gxLjczVjguNjhsLS43My0uNzN2MS4wOWwtLjk4LS45Ny0uNjQuNjMuOTguOTh6TTEuMzQgMy44NkExLjM1IDEuMzUgMCAxIDAgMi43IDUuMjFhMS4zNSAxLjM1IDAgMCAwLTEuMzYtMS4zNXptMCAyLjFhLjc2Ljc2IDAgMSAxIC43Ni0uNzVoMGEuNzYuNzYgMCAwIDEtLjc2Ljc1eiIgZmlsbD0iIzY2OWRmNiIvPiYjeGE7PC9zdmc+;" vertex="1" parent="gm-BCZkmppoRR4s2eMcR-32">
          <mxGeometry width="30" height="15" relative="1" as="geometry">
            <mxPoint x="15" y="22" as="offset" />
          </mxGeometry>
        </mxCell>
        <mxCell id="gm-BCZkmppoRR4s2eMcR-61" style="edgeStyle=orthogonalEdgeStyle;rounded=0;orthogonalLoop=1;jettySize=auto;html=1;entryX=1;entryY=0.5;entryDx=0;entryDy=0;" edge="1" parent="1" target="gm-BCZkmppoRR4s2eMcR-32">
          <mxGeometry relative="1" as="geometry">
            <mxPoint x="930" y="50" as="sourcePoint" />
          </mxGeometry>
        </mxCell>
        <mxCell id="gm-BCZkmppoRR4s2eMcR-54" value="" style="rounded=0;whiteSpace=wrap;html=1;dashed=1;dashPattern=8 8;" vertex="1" parent="1">
          <mxGeometry x="270" y="350" width="400" height="50" as="geometry" />
        </mxCell>
        <mxCell id="gm-BCZkmppoRR4s2eMcR-65" style="edgeStyle=orthogonalEdgeStyle;rounded=0;orthogonalLoop=1;jettySize=auto;html=1;entryX=0.5;entryY=0;entryDx=0;entryDy=0;" edge="1" parent="1" source="gm-BCZkmppoRR4s2eMcR-63" target="gm-BCZkmppoRR4s2eMcR-51">
          <mxGeometry relative="1" as="geometry" />
        </mxCell>
        <mxCell id="gm-BCZkmppoRR4s2eMcR-63" value="users" style="sketch=0;outlineConnect=0;gradientColor=none;fontColor=#545B64;strokeColor=none;fillColor=#879196;dashed=0;verticalLabelPosition=bottom;verticalAlign=top;align=center;html=1;fontSize=12;fontStyle=0;aspect=fixed;shape=mxgraph.aws4.illustration_users;pointerEvents=1" vertex="1" parent="1">
          <mxGeometry x="560" y="20" width="50" height="50" as="geometry" />
        </mxCell>
        <mxCell id="gm-BCZkmppoRR4s2eMcR-69" value="&lt;b&gt;&lt;font style=&quot;font-size: 20px;&quot;&gt;GKE Secure Deployment&lt;/font&gt;&lt;/b&gt;" style="rounded=0;whiteSpace=wrap;html=1;strokeColor=none;fillColor=light-dark(#FFFFFF,#2F77C0);" vertex="1" parent="1">
          <mxGeometry x="200" y="500" width="770" height="40" as="geometry" />
        </mxCell>
        <mxCell id="gm-BCZkmppoRR4s2eMcR-81" value="" style="image;sketch=0;aspect=fixed;html=1;points=[];align=center;fontSize=12;image=img/lib/mscae/Cache_Redis_Product.svg;" vertex="1" parent="1">
          <mxGeometry x="280" y="359" width="38.1" height="32" as="geometry" />
        </mxCell>
        <mxCell id="gm-BCZkmppoRR4s2eMcR-88" value="" style="aspect=fixed;sketch=0;html=1;dashed=0;whitespace=wrap;verticalLabelPosition=bottom;verticalAlign=top;fillColor=#2875E2;strokeColor=light-dark(#FFFFFF,#FFFFFF);points=[[0.005,0.63,0],[0.1,0.2,0],[0.9,0.2,0],[0.5,0,0],[0.995,0.63,0],[0.72,0.99,0],[0.5,1,0],[0.28,0.99,0]];shape=mxgraph.kubernetes.icon2;prIcon=pod" vertex="1" parent="1">
          <mxGeometry x="380" y="360" width="31.25" height="30" as="geometry" />
        </mxCell>
        <mxCell id="gm-BCZkmppoRR4s2eMcR-89" value="" style="aspect=fixed;sketch=0;html=1;dashed=0;whitespace=wrap;verticalLabelPosition=bottom;verticalAlign=top;fillColor=#2875E2;strokeColor=light-dark(#FFFFFF,#FFFFFF);points=[[0.005,0.63,0],[0.1,0.2,0],[0.9,0.2,0],[0.5,0,0],[0.995,0.63,0],[0.72,0.99,0],[0.5,1,0],[0.28,0.99,0]];shape=mxgraph.kubernetes.icon2;prIcon=pod" vertex="1" parent="1">
          <mxGeometry x="454.38" y="360" width="31.25" height="30" as="geometry" />
        </mxCell>
        <mxCell id="gm-BCZkmppoRR4s2eMcR-90" value="" style="aspect=fixed;sketch=0;html=1;dashed=0;whitespace=wrap;verticalLabelPosition=bottom;verticalAlign=top;fillColor=#2875E2;strokeColor=light-dark(#FFFFFF,#FFFFFF);points=[[0.005,0.63,0],[0.1,0.2,0],[0.9,0.2,0],[0.5,0,0],[0.995,0.63,0],[0.72,0.99,0],[0.5,1,0],[0.28,0.99,0]];shape=mxgraph.kubernetes.icon2;prIcon=pod" vertex="1" parent="1">
          <mxGeometry x="528.76" y="360" width="31.25" height="30" as="geometry" />
        </mxCell>
        <mxCell id="gm-BCZkmppoRR4s2eMcR-91" value="DevOps" style="sketch=0;outlineConnect=0;fontColor=#232F3E;gradientColor=none;fillColor=#232F3D;strokeColor=none;dashed=0;verticalLabelPosition=bottom;verticalAlign=top;align=center;html=1;fontSize=12;fontStyle=0;aspect=fixed;pointerEvents=1;shape=mxgraph.aws4.user;" vertex="1" parent="1">
          <mxGeometry x="930" y="30" width="40" height="40" as="geometry" />
        </mxCell>
      </root>
    </mxGraphModel>
  </diagram>
</mxfile>
